<mxfile host="Electron" modified="2023-06-26T18:27:57.813Z" agent="Mozilla/5.0 (Macintosh; Intel Mac OS X 10_15_7) AppleWebKit/537.36 (KHTML, like Gecko) draw.io/21.2.8 Chrome/112.0.5615.165 Electron/24.2.0 Safari/537.36" etag="px-RpFRJ4v1sEOEa3e0Y" version="21.2.8" type="device" pages="3">
  <diagram id="L92bN-5wrY3Ym5th7W7Z" name="sprint-level alignment">
    <mxGraphModel dx="1292" dy="880" grid="1" gridSize="10" guides="1" tooltips="1" connect="1" arrows="1" fold="1" page="0" pageScale="1" pageWidth="1100" pageHeight="850" math="0" shadow="0">
      <root>
        <mxCell id="0" />
        <mxCell id="1" parent="0" />
        <mxCell id="xRzB9o6JKHVX008hZbFA-3" value="&lt;span style=&quot;font-size: 20px&quot;&gt;Implementation Phase&lt;/span&gt;" style="rounded=0;whiteSpace=wrap;html=1;fillColor=#ccffcc;strokeColor=#000000;verticalAlign=top;" parent="1" vertex="1">
          <mxGeometry x="610" y="260" width="480" height="160" as="geometry" />
        </mxCell>
        <mxCell id="xRzB9o6JKHVX008hZbFA-4" value="&lt;span style=&quot;font-size: 20px&quot;&gt;Design Phase&lt;/span&gt;" style="rounded=0;whiteSpace=wrap;html=1;fillColor=#ccffcc;strokeColor=#000000;verticalAlign=top;" parent="1" vertex="1">
          <mxGeometry x="370" y="260" width="240" height="160" as="geometry" />
        </mxCell>
        <mxCell id="xRzB9o6JKHVX008hZbFA-2" value="&lt;span style=&quot;font-size: 20px&quot;&gt;Requirements Phase&lt;/span&gt;" style="rounded=0;whiteSpace=wrap;html=1;fillColor=#ccffcc;strokeColor=#000000;verticalAlign=top;" parent="1" vertex="1">
          <mxGeometry x="130" y="260" width="240" height="160" as="geometry" />
        </mxCell>
        <mxCell id="xRzB9o6JKHVX008hZbFA-11" value="&lt;font style=&quot;font-size: 14px;&quot;&gt;Security Requirements&lt;/font&gt;" style="shape=callout;whiteSpace=wrap;html=1;perimeter=calloutPerimeter;strokeColor=#d79b00;position2=0.26;size=140;position=0.55;fillColor=#ffe6cc;" parent="1" vertex="1">
          <mxGeometry x="170" y="340" width="160" height="170" as="geometry" />
        </mxCell>
        <mxCell id="xRzB9o6JKHVX008hZbFA-12" value="&lt;font style=&quot;font-size: 14px;&quot;&gt;Secure Design Review&lt;br&gt;Attack Surface Analysis&lt;br&gt;Threat Modeling&lt;/font&gt;" style="shape=callout;whiteSpace=wrap;html=1;perimeter=calloutPerimeter;strokeColor=#d79b00;position2=0.2;size=120;position=0.37;fillColor=#ffe6cc;base=22;" parent="1" vertex="1">
          <mxGeometry x="410" y="320" width="165" height="190" as="geometry" />
        </mxCell>
        <mxCell id="xRzB9o6JKHVX008hZbFA-13" value="&lt;div style=&quot;border-color: var(--border-color); font-size: 14px;&quot;&gt;&lt;span style=&quot;background-color: initial;&quot;&gt;&lt;font style=&quot;font-size: 14px;&quot;&gt;Static Analysis&lt;/font&gt;&lt;/span&gt;&lt;/div&gt;&lt;div style=&quot;border-color: var(--border-color); font-size: 14px;&quot;&gt;&lt;span style=&quot;border-color: var(--border-color);&quot;&gt;&lt;font style=&quot;font-size: 14px;&quot;&gt;Dynamic Analysis&lt;/font&gt;&lt;/span&gt;&lt;/div&gt;&lt;div style=&quot;border-color: var(--border-color); font-size: 14px;&quot;&gt;&lt;span style=&quot;border-color: var(--border-color);&quot;&gt;&lt;font style=&quot;font-size: 14px;&quot;&gt;Fuzz Testing&lt;/font&gt;&lt;/span&gt;&lt;/div&gt;&lt;div style=&quot;border-color: var(--border-color); font-size: 14px;&quot;&gt;&lt;font style=&quot;font-size: 14px;&quot;&gt;Secure Code Review&lt;/font&gt;&lt;/div&gt;" style="shape=callout;whiteSpace=wrap;html=1;perimeter=calloutPerimeter;strokeColor=#d79b00;position2=0.22;size=120;position=0.52;fillColor=#ffe6cc;base=20;" parent="1" vertex="1">
          <mxGeometry x="900" y="310" width="140" height="200" as="geometry" />
        </mxCell>
        <mxCell id="yEyZO0CaVLPl9Ij1KaHP-2" value="&lt;div style=&quot;border-color: var(--border-color); font-size: 14px;&quot;&gt;&lt;div style=&quot;border-color: var(--border-color);&quot;&gt;Use Approved Tools&lt;/div&gt;&lt;div style=&quot;border-color: var(--border-color);&quot;&gt;Configure Secure Build&lt;/div&gt;&lt;div style=&quot;border-color: var(--border-color);&quot;&gt;Use Secure Settings&lt;/div&gt;&lt;div style=&quot;border-color: var(--border-color);&quot;&gt;Reuse Secure Software&lt;/div&gt;&lt;div style=&quot;border-color: var(--border-color);&quot;&gt;Code Securely&lt;/div&gt;&lt;div style=&quot;border-color: var(--border-color);&quot;&gt;&lt;span style=&quot;border-color: var(--border-color);&quot;&gt;Deprecate Unsafe Functions&lt;/span&gt;&lt;/div&gt;&lt;/div&gt;" style="shape=callout;whiteSpace=wrap;html=1;perimeter=calloutPerimeter;strokeColor=#d79b00;position2=0.15;size=100;position=0.47;fillColor=#ffe6cc;base=20;" parent="1" vertex="1">
          <mxGeometry x="660" y="300" width="190" height="210" as="geometry" />
        </mxCell>
        <mxCell id="xRzB9o6JKHVX008hZbFA-1" value="&lt;font style=&quot;font-size: 20px&quot;&gt;SP&lt;sub&gt;m-3&lt;/sub&gt;&lt;/font&gt;" style="rounded=0;whiteSpace=wrap;html=1;fillColor=#dae8fc;" parent="1" vertex="1">
          <mxGeometry x="130" y="510" width="240" height="40" as="geometry" />
        </mxCell>
        <mxCell id="xRzB9o6JKHVX008hZbFA-5" value="&lt;font style=&quot;font-size: 20px&quot;&gt;SP&lt;sub&gt;m-2&lt;/sub&gt;&lt;/font&gt;" style="rounded=0;whiteSpace=wrap;html=1;fillColor=#dae8fc;" parent="1" vertex="1">
          <mxGeometry x="370" y="510" width="240" height="40" as="geometry" />
        </mxCell>
        <mxCell id="xRzB9o6JKHVX008hZbFA-6" value="&lt;font style=&quot;font-size: 20px&quot;&gt;SP&lt;sub&gt;m-1&lt;/sub&gt;&lt;/font&gt;" style="rounded=0;whiteSpace=wrap;html=1;fillColor=#dae8fc;" parent="1" vertex="1">
          <mxGeometry x="610" y="510" width="240" height="40" as="geometry" />
        </mxCell>
        <mxCell id="xRzB9o6JKHVX008hZbFA-7" value="" style="endArrow=classic;html=1;exitX=0.5;exitY=1;exitDx=0;exitDy=0;entryX=0.5;entryY=0;entryDx=0;entryDy=0;dashed=1;strokeWidth=3;" parent="1" source="xRzB9o6JKHVX008hZbFA-2" target="xRzB9o6JKHVX008hZbFA-5" edge="1">
          <mxGeometry width="50" height="50" relative="1" as="geometry">
            <mxPoint x="410" y="770" as="sourcePoint" />
            <mxPoint x="460" y="720" as="targetPoint" />
          </mxGeometry>
        </mxCell>
        <mxCell id="xRzB9o6JKHVX008hZbFA-9" value="" style="endArrow=classic;html=1;exitX=0.5;exitY=1;exitDx=0;exitDy=0;entryX=0.5;entryY=0;entryDx=0;entryDy=0;dashed=1;strokeWidth=3;" parent="1" source="xRzB9o6JKHVX008hZbFA-4" target="xRzB9o6JKHVX008hZbFA-6" edge="1">
          <mxGeometry width="50" height="50" relative="1" as="geometry">
            <mxPoint x="490" y="440" as="sourcePoint" />
            <mxPoint x="730" y="530" as="targetPoint" />
          </mxGeometry>
        </mxCell>
        <mxCell id="m35iefhiHcukXngKLXXW-1" value="&lt;font style=&quot;font-size: 18px;&quot; color=&quot;#ff0000&quot;&gt;Note&lt;/font&gt;" style="text;html=1;strokeColor=none;fillColor=none;align=center;verticalAlign=middle;whiteSpace=wrap;rounded=0;rotation=22;" vertex="1" parent="1">
          <mxGeometry x="340" y="440" width="60" height="20" as="geometry" />
        </mxCell>
        <mxCell id="m35iefhiHcukXngKLXXW-2" value="&lt;font style=&quot;font-size: 18px;&quot; color=&quot;#ff0000&quot;&gt;Note&lt;/font&gt;" style="text;html=1;strokeColor=none;fillColor=none;align=center;verticalAlign=middle;whiteSpace=wrap;rounded=0;rotation=22;" vertex="1" parent="1">
          <mxGeometry x="590" y="443" width="60" height="20" as="geometry" />
        </mxCell>
        <mxCell id="-5Op6Tbm50JIl3acv1TC-1" value="note" parent="0" />
        <mxCell id="-5Op6Tbm50JIl3acv1TC-2" value="&lt;p style=&quot;line-height: normal; margin-top: 0pt; margin-bottom: 0pt; margin-right: 0in; text-indent: -0.69in; text-align: left; unicode-bidi: embed; font-size: 15px;&quot;&gt;&lt;span style=&quot;font-variant: normal; color: red; text-transform: none; font-style: normal;&quot;&gt;&amp;nbsp; &amp;nbsp; Note:&lt;span style=&quot;mso-tab-count:&lt;br/&gt;1&quot;&gt;&amp;nbsp; &amp;nbsp;&lt;/span&gt;&lt;/span&gt;&lt;span style=&quot;text-transform: none; font-weight: normal;&quot;&gt;The requirements activity is performed one sprint in advance of design,&lt;br&gt;and design activities one sprint in advance of implementation activities.&lt;br&gt;&lt;br&gt;Sprint&lt;/span&gt;&lt;span style=&quot;color: blue; text-transform: none; font-weight: normal;&quot;&gt; &lt;/span&gt;&lt;font style=&quot;font-size: 15px;&quot; color=&quot;#0000ff&quot;&gt;&lt;span style=&quot;text-transform: none; font-weight: normal;&quot;&gt;SP&lt;/span&gt;&lt;span style=&quot;font-variant: normal; font-weight: normal; font-style: normal;&quot;&gt;&lt;sub style=&quot;&quot;&gt;0&lt;/sub&gt;&lt;/span&gt;&lt;/font&gt;&lt;span style=&quot;font-variant: normal; text-transform: none; font-weight: normal;&quot;&gt; is assumed to bootstrap the process.&lt;/span&gt;&lt;/p&gt;" style="text;whiteSpace=wrap;html=1;" parent="-5Op6Tbm50JIl3acv1TC-1" vertex="1">
          <mxGeometry x="390" y="600" width="480" height="80" as="geometry" />
        </mxCell>
        <mxCell id="yEyZO0CaVLPl9Ij1KaHP-1" value="&lt;font style=&quot;font-size: 20px&quot;&gt;SP&lt;sub&gt;m&lt;/sub&gt;&lt;/font&gt;" style="rounded=0;whiteSpace=wrap;html=1;fillColor=#dae8fc;" parent="-5Op6Tbm50JIl3acv1TC-1" vertex="1">
          <mxGeometry x="850" y="510" width="240" height="40" as="geometry" />
        </mxCell>
      </root>
    </mxGraphModel>
  </diagram>
  <diagram id="o96QdWY0B0lx0bbx-CJo" name="sprint cadence">
    <mxGraphModel dx="892" dy="80" grid="1" gridSize="10" guides="1" tooltips="1" connect="1" arrows="1" fold="1" page="0" pageScale="1" pageWidth="850" pageHeight="1100" math="0" shadow="0">
      <root>
        <mxCell id="0" />
        <mxCell id="1" parent="0" />
        <mxCell id="VZBo6chZizv4vE-CezM8-1" value="&lt;font style=&quot;font-size: 20px&quot;&gt;SP&lt;sub&gt;m&lt;/sub&gt;&lt;/font&gt;" style="rounded=0;whiteSpace=wrap;html=1;fillColor=#dae8fc;" parent="1" vertex="1">
          <mxGeometry x="760" y="1010" width="120" height="40" as="geometry" />
        </mxCell>
        <mxCell id="VZBo6chZizv4vE-CezM8-2" value="&lt;span style=&quot;font-size: 20px&quot;&gt;M&lt;/span&gt;&lt;span style=&quot;font-size: 16.6667px;&quot;&gt;&lt;sub&gt;0&lt;/sub&gt;&lt;/span&gt;" style="rounded=0;whiteSpace=wrap;html=1;fillColor=#ccffcc;strokeColor=#000000;" parent="1" vertex="1">
          <mxGeometry x="760" y="960" width="160" height="40" as="geometry" />
        </mxCell>
        <mxCell id="VZBo6chZizv4vE-CezM8-3" value="&lt;span style=&quot;font-size: 20px&quot;&gt;M&lt;sub&gt;2&lt;/sub&gt;&lt;/span&gt;" style="rounded=0;whiteSpace=wrap;html=1;fillColor=#ccffcc;strokeColor=#000000;" parent="1" vertex="1">
          <mxGeometry x="1080" y="960" width="160" height="40" as="geometry" />
        </mxCell>
        <mxCell id="VZBo6chZizv4vE-CezM8-4" value="&lt;span style=&quot;font-size: 20px&quot;&gt;M&lt;sub&gt;1&lt;/sub&gt;&lt;/span&gt;" style="rounded=0;whiteSpace=wrap;html=1;fillColor=#ccffcc;strokeColor=#000000;" parent="1" vertex="1">
          <mxGeometry x="920" y="960" width="160" height="40" as="geometry" />
        </mxCell>
        <mxCell id="VZBo6chZizv4vE-CezM8-5" value="&lt;font style=&quot;font-size: 20px&quot;&gt;SP&lt;sub&gt;m+1&lt;/sub&gt;&lt;/font&gt;" style="rounded=0;whiteSpace=wrap;html=1;fillColor=#dae8fc;" parent="1" vertex="1">
          <mxGeometry x="880" y="1010" width="120" height="40" as="geometry" />
        </mxCell>
        <mxCell id="VZBo6chZizv4vE-CezM8-6" value="&lt;font style=&quot;font-size: 20px&quot;&gt;SP&lt;sub&gt;m+2&lt;/sub&gt;&lt;/font&gt;" style="rounded=0;whiteSpace=wrap;html=1;fillColor=#dae8fc;" parent="1" vertex="1">
          <mxGeometry x="1000" y="1010" width="120" height="40" as="geometry" />
        </mxCell>
        <mxCell id="VZBo6chZizv4vE-CezM8-12" value="&lt;span style=&quot;font-size: 20px&quot;&gt;SI&lt;sub&gt;n&lt;/sub&gt;&lt;/span&gt;" style="rounded=0;whiteSpace=wrap;html=1;fillColor=#FFF4C3;strokeColor=#000000;" parent="1" vertex="1">
          <mxGeometry x="760" y="910" width="480" height="40" as="geometry" />
        </mxCell>
        <mxCell id="VZBo6chZizv4vE-CezM8-13" value="&lt;span style=&quot;font-size: 20px&quot;&gt;SI&lt;sub&gt;n+2&lt;/sub&gt;&lt;/span&gt;" style="rounded=0;whiteSpace=wrap;html=1;fillColor=#FFF4C3;strokeColor=#000000;" parent="1" vertex="1">
          <mxGeometry x="1720" y="910" width="480" height="40" as="geometry" />
        </mxCell>
        <mxCell id="VZBo6chZizv4vE-CezM8-14" value="&lt;span style=&quot;font-size: 20px&quot;&gt;SI&lt;sub&gt;n+1&lt;/sub&gt;&lt;/span&gt;" style="rounded=0;whiteSpace=wrap;html=1;fillColor=#FFF4C3;strokeColor=#000000;" parent="1" vertex="1">
          <mxGeometry x="1240" y="910" width="480" height="40" as="geometry" />
        </mxCell>
        <mxCell id="VZBo6chZizv4vE-CezM8-15" value="&lt;span style=&quot;font-size: 20px&quot;&gt;SI&lt;sub&gt;n+3&lt;/sub&gt;&lt;/span&gt;" style="rounded=0;whiteSpace=wrap;html=1;fillColor=#FFF4C3;strokeColor=#000000;" parent="1" vertex="1">
          <mxGeometry x="2200" y="910" width="480" height="40" as="geometry" />
        </mxCell>
        <mxCell id="VZBo6chZizv4vE-CezM8-16" value="&lt;span style=&quot;font-size: 20px&quot;&gt;M&lt;/span&gt;&lt;span style=&quot;font-size: 16.6667px;&quot;&gt;&lt;sub&gt;0&lt;/sub&gt;&lt;/span&gt;" style="rounded=0;whiteSpace=wrap;html=1;fillColor=#ccffcc;strokeColor=#000000;" parent="1" vertex="1">
          <mxGeometry x="1240" y="960" width="160" height="40" as="geometry" />
        </mxCell>
        <mxCell id="VZBo6chZizv4vE-CezM8-17" value="&lt;span style=&quot;font-size: 20px&quot;&gt;M&lt;sub&gt;2&lt;/sub&gt;&lt;/span&gt;" style="rounded=0;whiteSpace=wrap;html=1;fillColor=#ccffcc;strokeColor=#000000;" parent="1" vertex="1">
          <mxGeometry x="1560" y="960" width="160" height="40" as="geometry" />
        </mxCell>
        <mxCell id="VZBo6chZizv4vE-CezM8-18" value="&lt;span style=&quot;font-size: 20px&quot;&gt;M&lt;sub&gt;1&lt;/sub&gt;&lt;/span&gt;" style="rounded=0;whiteSpace=wrap;html=1;fillColor=#ccffcc;strokeColor=#000000;" parent="1" vertex="1">
          <mxGeometry x="1400" y="960" width="160" height="40" as="geometry" />
        </mxCell>
        <mxCell id="VZBo6chZizv4vE-CezM8-19" value="&lt;span style=&quot;font-size: 20px&quot;&gt;M&lt;/span&gt;&lt;span style=&quot;font-size: 16.6667px;&quot;&gt;&lt;sub&gt;0&lt;/sub&gt;&lt;/span&gt;" style="rounded=0;whiteSpace=wrap;html=1;fillColor=#ccffcc;strokeColor=#000000;" parent="1" vertex="1">
          <mxGeometry x="1720" y="960" width="160" height="40" as="geometry" />
        </mxCell>
        <mxCell id="VZBo6chZizv4vE-CezM8-20" value="&lt;span style=&quot;font-size: 20px&quot;&gt;M&lt;sub&gt;2&lt;/sub&gt;&lt;/span&gt;" style="rounded=0;whiteSpace=wrap;html=1;fillColor=#ccffcc;strokeColor=#000000;" parent="1" vertex="1">
          <mxGeometry x="2040" y="960" width="160" height="40" as="geometry" />
        </mxCell>
        <mxCell id="VZBo6chZizv4vE-CezM8-21" value="&lt;span style=&quot;font-size: 20px&quot;&gt;M&lt;sub&gt;1&lt;/sub&gt;&lt;/span&gt;" style="rounded=0;whiteSpace=wrap;html=1;fillColor=#ccffcc;strokeColor=#000000;" parent="1" vertex="1">
          <mxGeometry x="1880" y="960" width="160" height="40" as="geometry" />
        </mxCell>
        <mxCell id="VZBo6chZizv4vE-CezM8-22" value="&lt;span style=&quot;font-size: 20px&quot;&gt;M&lt;/span&gt;&lt;span style=&quot;font-size: 16.6667px;&quot;&gt;&lt;sub&gt;0&lt;/sub&gt;&lt;/span&gt;" style="rounded=0;whiteSpace=wrap;html=1;fillColor=#ccffcc;strokeColor=#000000;" parent="1" vertex="1">
          <mxGeometry x="2200" y="960" width="160" height="40" as="geometry" />
        </mxCell>
        <mxCell id="VZBo6chZizv4vE-CezM8-23" value="&lt;span style=&quot;font-size: 20px&quot;&gt;M&lt;sub&gt;2&lt;/sub&gt;&lt;/span&gt;" style="rounded=0;whiteSpace=wrap;html=1;fillColor=#ccffcc;strokeColor=#000000;" parent="1" vertex="1">
          <mxGeometry x="2520" y="960" width="160" height="40" as="geometry" />
        </mxCell>
        <mxCell id="VZBo6chZizv4vE-CezM8-24" value="&lt;span style=&quot;font-size: 20px&quot;&gt;M&lt;sub&gt;1&lt;/sub&gt;&lt;/span&gt;" style="rounded=0;whiteSpace=wrap;html=1;fillColor=#ccffcc;strokeColor=#000000;" parent="1" vertex="1">
          <mxGeometry x="2360" y="960" width="160" height="40" as="geometry" />
        </mxCell>
        <mxCell id="VZBo6chZizv4vE-CezM8-25" value="&lt;font style=&quot;font-size: 20px&quot;&gt;SP&lt;sub&gt;m&lt;/sub&gt;&lt;/font&gt;" style="rounded=0;whiteSpace=wrap;html=1;fillColor=#dae8fc;" parent="1" vertex="1">
          <mxGeometry x="760" y="1230" width="80" height="40" as="geometry" />
        </mxCell>
        <mxCell id="VZBo6chZizv4vE-CezM8-26" value="&lt;font style=&quot;font-size: 20px&quot;&gt;SP&lt;sub&gt;m+1&lt;/sub&gt;&lt;/font&gt;" style="rounded=0;whiteSpace=wrap;html=1;fillColor=#dae8fc;" parent="1" vertex="1">
          <mxGeometry x="840" y="1230" width="80" height="40" as="geometry" />
        </mxCell>
        <mxCell id="VZBo6chZizv4vE-CezM8-27" value="&lt;font style=&quot;font-size: 20px&quot;&gt;SP&lt;sub&gt;m+2&lt;/sub&gt;&lt;/font&gt;" style="rounded=0;whiteSpace=wrap;html=1;fillColor=#dae8fc;" parent="1" vertex="1">
          <mxGeometry x="920" y="1230" width="80" height="40" as="geometry" />
        </mxCell>
        <mxCell id="VZBo6chZizv4vE-CezM8-28" value="&lt;font style=&quot;font-size: 20px&quot;&gt;SP&lt;sub&gt;m+3&lt;/sub&gt;&lt;/font&gt;" style="rounded=0;whiteSpace=wrap;html=1;fillColor=#dae8fc;" parent="1" vertex="1">
          <mxGeometry x="1000" y="1230" width="80" height="40" as="geometry" />
        </mxCell>
        <mxCell id="VZBo6chZizv4vE-CezM8-29" value="&lt;font style=&quot;font-size: 20px&quot;&gt;SP&lt;sub&gt;m+4&lt;/sub&gt;&lt;/font&gt;" style="rounded=0;whiteSpace=wrap;html=1;fillColor=#dae8fc;" parent="1" vertex="1">
          <mxGeometry x="1080" y="1230" width="80" height="40" as="geometry" />
        </mxCell>
        <mxCell id="VZBo6chZizv4vE-CezM8-30" value="&lt;font style=&quot;font-size: 20px&quot;&gt;SP&lt;sub&gt;m+5&lt;/sub&gt;&lt;/font&gt;" style="rounded=0;whiteSpace=wrap;html=1;fillColor=#dae8fc;" parent="1" vertex="1">
          <mxGeometry x="1160" y="1230" width="80" height="40" as="geometry" />
        </mxCell>
        <mxCell id="VZBo6chZizv4vE-CezM8-31" value="&lt;font style=&quot;font-size: 20px&quot;&gt;SP&lt;sub&gt;m+3&lt;/sub&gt;&lt;/font&gt;" style="rounded=0;whiteSpace=wrap;html=1;fillColor=#dae8fc;" parent="1" vertex="1">
          <mxGeometry x="1120" y="1010" width="120" height="40" as="geometry" />
        </mxCell>
        <mxCell id="I1y_XroyzLI6XQ8AGOqx-2" value="&lt;font style=&quot;font-size: 16px;&quot;&gt;design&lt;/font&gt;" style="rounded=0;whiteSpace=wrap;html=1;fillColor=#CCCCFF;" parent="1" vertex="1">
          <mxGeometry x="760" y="1280" width="80" height="40" as="geometry" />
        </mxCell>
        <mxCell id="RAWwMJ1mJM9-SF2o9ze5-3" value="&lt;font style=&quot;font-size: 16px;&quot;&gt;implement&lt;/font&gt;" style="rounded=0;whiteSpace=wrap;html=1;fillColor=#CCCCFF;" parent="1" vertex="1">
          <mxGeometry x="840" y="1280" width="80" height="40" as="geometry" />
        </mxCell>
        <mxCell id="RAWwMJ1mJM9-SF2o9ze5-4" value="&lt;font style=&quot;font-size: 16px;&quot;&gt;test&lt;/font&gt;" style="rounded=0;whiteSpace=wrap;html=1;fillColor=#CCCCFF;" parent="1" vertex="1">
          <mxGeometry x="920" y="1280" width="80" height="40" as="geometry" />
        </mxCell>
        <mxCell id="RAWwMJ1mJM9-SF2o9ze5-14" value="&lt;span style=&quot;font-size: 20px;&quot;&gt;design&lt;/span&gt;" style="rounded=0;whiteSpace=wrap;html=1;fillColor=#9999FF;" parent="1" vertex="1">
          <mxGeometry x="1120" y="1060" width="120" height="40" as="geometry" />
        </mxCell>
        <mxCell id="RAWwMJ1mJM9-SF2o9ze5-15" value="&lt;span style=&quot;font-size: 20px;&quot;&gt;implement&lt;/span&gt;" style="rounded=0;whiteSpace=wrap;html=1;fillColor=#9999FF;" parent="1" vertex="1">
          <mxGeometry x="1240" y="1060" width="120" height="40" as="geometry" />
        </mxCell>
        <mxCell id="RAWwMJ1mJM9-SF2o9ze5-16" value="&lt;span style=&quot;font-size: 20px;&quot;&gt;test&lt;/span&gt;" style="rounded=0;whiteSpace=wrap;html=1;fillColor=#9999FF;" parent="1" vertex="1">
          <mxGeometry x="1360" y="1060" width="120" height="40" as="geometry" />
        </mxCell>
        <mxCell id="RAWwMJ1mJM9-SF2o9ze5-17" value="&lt;span style=&quot;font-size: 20px;&quot;&gt;design&lt;/span&gt;" style="rounded=0;whiteSpace=wrap;html=1;fillColor=#CCCCFF;" parent="1" vertex="1">
          <mxGeometry x="880" y="1100" width="120" height="40" as="geometry" />
        </mxCell>
        <mxCell id="RAWwMJ1mJM9-SF2o9ze5-18" value="&lt;span style=&quot;font-size: 20px;&quot;&gt;implement&lt;/span&gt;" style="rounded=0;whiteSpace=wrap;html=1;fillColor=#CCCCFF;" parent="1" vertex="1">
          <mxGeometry x="1000" y="1100" width="120" height="40" as="geometry" />
        </mxCell>
        <mxCell id="RAWwMJ1mJM9-SF2o9ze5-19" value="&lt;span style=&quot;font-size: 20px;&quot;&gt;test&lt;/span&gt;" style="rounded=0;whiteSpace=wrap;html=1;fillColor=#CCCCFF;" parent="1" vertex="1">
          <mxGeometry x="1120" y="1100" width="120" height="40" as="geometry" />
        </mxCell>
        <mxCell id="RAWwMJ1mJM9-SF2o9ze5-20" value="&lt;span style=&quot;font-size: 20px;&quot;&gt;design&lt;/span&gt;" style="rounded=0;whiteSpace=wrap;html=1;fillColor=#9999FF;" parent="1" vertex="1">
          <mxGeometry x="1240" y="1100" width="120" height="40" as="geometry" />
        </mxCell>
        <mxCell id="RAWwMJ1mJM9-SF2o9ze5-21" value="&lt;span style=&quot;font-size: 20px;&quot;&gt;implement&lt;/span&gt;" style="rounded=0;whiteSpace=wrap;html=1;fillColor=#9999FF;" parent="1" vertex="1">
          <mxGeometry x="1360" y="1100" width="120" height="40" as="geometry" />
        </mxCell>
        <mxCell id="RAWwMJ1mJM9-SF2o9ze5-22" value="&lt;span style=&quot;font-size: 20px;&quot;&gt;test&lt;/span&gt;" style="rounded=0;whiteSpace=wrap;html=1;fillColor=#9999FF;" parent="1" vertex="1">
          <mxGeometry x="1480" y="1100" width="120" height="40" as="geometry" />
        </mxCell>
        <mxCell id="RAWwMJ1mJM9-SF2o9ze5-23" value="&lt;span style=&quot;font-size: 20px;&quot;&gt;design&lt;/span&gt;" style="rounded=0;whiteSpace=wrap;html=1;fillColor=#CCCCFF;" parent="1" vertex="1">
          <mxGeometry x="1000" y="1140" width="120" height="40" as="geometry" />
        </mxCell>
        <mxCell id="RAWwMJ1mJM9-SF2o9ze5-24" value="&lt;span style=&quot;font-size: 20px;&quot;&gt;implement&lt;/span&gt;" style="rounded=0;whiteSpace=wrap;html=1;fillColor=#CCCCFF;" parent="1" vertex="1">
          <mxGeometry x="1120" y="1140" width="120" height="40" as="geometry" />
        </mxCell>
        <mxCell id="RAWwMJ1mJM9-SF2o9ze5-25" value="&lt;span style=&quot;font-size: 20px;&quot;&gt;test&lt;/span&gt;" style="rounded=0;whiteSpace=wrap;html=1;fillColor=#CCCCFF;" parent="1" vertex="1">
          <mxGeometry x="1240" y="1140" width="120" height="40" as="geometry" />
        </mxCell>
        <mxCell id="RAWwMJ1mJM9-SF2o9ze5-26" value="&lt;span style=&quot;font-size: 20px;&quot;&gt;design&lt;/span&gt;" style="rounded=0;whiteSpace=wrap;html=1;fillColor=#9999FF;" parent="1" vertex="1">
          <mxGeometry x="1360" y="1140" width="120" height="40" as="geometry" />
        </mxCell>
        <mxCell id="RAWwMJ1mJM9-SF2o9ze5-27" value="&lt;span style=&quot;font-size: 20px;&quot;&gt;implement&lt;/span&gt;" style="rounded=0;whiteSpace=wrap;html=1;fillColor=#9999FF;" parent="1" vertex="1">
          <mxGeometry x="1480" y="1140" width="120" height="40" as="geometry" />
        </mxCell>
        <mxCell id="RAWwMJ1mJM9-SF2o9ze5-28" value="&lt;span style=&quot;font-size: 20px;&quot;&gt;test&lt;/span&gt;" style="rounded=0;whiteSpace=wrap;html=1;fillColor=#9999FF;" parent="1" vertex="1">
          <mxGeometry x="1600" y="1140" width="120" height="40" as="geometry" />
        </mxCell>
        <mxCell id="RAWwMJ1mJM9-SF2o9ze5-29" value="&lt;span style=&quot;font-size: 20px;&quot;&gt;design&lt;/span&gt;" style="rounded=0;whiteSpace=wrap;html=1;fillColor=#CCCCFF;" parent="1" vertex="1">
          <mxGeometry x="1120" y="1180" width="120" height="40" as="geometry" />
        </mxCell>
        <mxCell id="RAWwMJ1mJM9-SF2o9ze5-30" value="&lt;span style=&quot;font-size: 20px;&quot;&gt;implement&lt;/span&gt;" style="rounded=0;whiteSpace=wrap;html=1;fillColor=#CCCCFF;" parent="1" vertex="1">
          <mxGeometry x="1240" y="1180" width="120" height="40" as="geometry" />
        </mxCell>
        <mxCell id="RAWwMJ1mJM9-SF2o9ze5-31" value="&lt;span style=&quot;font-size: 20px;&quot;&gt;test&lt;/span&gt;" style="rounded=0;whiteSpace=wrap;html=1;fillColor=#CCCCFF;" parent="1" vertex="1">
          <mxGeometry x="1360" y="1180" width="120" height="40" as="geometry" />
        </mxCell>
        <mxCell id="RAWwMJ1mJM9-SF2o9ze5-32" value="&lt;span style=&quot;font-size: 20px;&quot;&gt;design&lt;/span&gt;" style="rounded=0;whiteSpace=wrap;html=1;fillColor=#9999FF;" parent="1" vertex="1">
          <mxGeometry x="1480" y="1180" width="120" height="40" as="geometry" />
        </mxCell>
        <mxCell id="RAWwMJ1mJM9-SF2o9ze5-33" value="&lt;span style=&quot;font-size: 20px;&quot;&gt;implement&lt;/span&gt;" style="rounded=0;whiteSpace=wrap;html=1;fillColor=#9999FF;" parent="1" vertex="1">
          <mxGeometry x="1600" y="1180" width="120" height="40" as="geometry" />
        </mxCell>
        <mxCell id="RAWwMJ1mJM9-SF2o9ze5-34" value="&lt;span style=&quot;font-size: 20px;&quot;&gt;test&lt;/span&gt;" style="rounded=0;whiteSpace=wrap;html=1;fillColor=#9999FF;" parent="1" vertex="1">
          <mxGeometry x="1720" y="1180" width="120" height="40" as="geometry" />
        </mxCell>
        <mxCell id="RAWwMJ1mJM9-SF2o9ze5-35" value="&lt;span style=&quot;font-size: 20px;&quot;&gt;design&lt;/span&gt;" style="rounded=0;whiteSpace=wrap;html=1;fillColor=#CCCCFF;" parent="1" vertex="1">
          <mxGeometry x="1480" y="1060" width="120" height="40" as="geometry" />
        </mxCell>
        <mxCell id="RAWwMJ1mJM9-SF2o9ze5-36" value="&lt;span style=&quot;font-size: 20px;&quot;&gt;implement&lt;/span&gt;" style="rounded=0;whiteSpace=wrap;html=1;fillColor=#CCCCFF;" parent="1" vertex="1">
          <mxGeometry x="1600" y="1060" width="120" height="40" as="geometry" />
        </mxCell>
        <mxCell id="RAWwMJ1mJM9-SF2o9ze5-37" value="&lt;span style=&quot;font-size: 20px;&quot;&gt;test&lt;/span&gt;" style="rounded=0;whiteSpace=wrap;html=1;fillColor=#CCCCFF;" parent="1" vertex="1">
          <mxGeometry x="1720" y="1060" width="120" height="40" as="geometry" />
        </mxCell>
        <mxCell id="RAWwMJ1mJM9-SF2o9ze5-38" value="&lt;span style=&quot;font-size: 20px;&quot;&gt;design&lt;/span&gt;" style="rounded=0;whiteSpace=wrap;html=1;fillColor=#9999FF;" parent="1" vertex="1">
          <mxGeometry x="1840" y="1060" width="120" height="40" as="geometry" />
        </mxCell>
        <mxCell id="RAWwMJ1mJM9-SF2o9ze5-39" value="&lt;span style=&quot;font-size: 20px;&quot;&gt;implement&lt;/span&gt;" style="rounded=0;whiteSpace=wrap;html=1;fillColor=#9999FF;" parent="1" vertex="1">
          <mxGeometry x="1960" y="1060" width="120" height="40" as="geometry" />
        </mxCell>
        <mxCell id="RAWwMJ1mJM9-SF2o9ze5-40" value="&lt;span style=&quot;font-size: 20px;&quot;&gt;test&lt;/span&gt;" style="rounded=0;whiteSpace=wrap;html=1;fillColor=#9999FF;" parent="1" vertex="1">
          <mxGeometry x="2080" y="1060" width="120" height="40" as="geometry" />
        </mxCell>
        <mxCell id="RAWwMJ1mJM9-SF2o9ze5-41" value="&lt;span style=&quot;font-size: 20px;&quot;&gt;design&lt;/span&gt;" style="rounded=0;whiteSpace=wrap;html=1;fillColor=#CCCCFF;" parent="1" vertex="1">
          <mxGeometry x="1600" y="1100" width="120" height="40" as="geometry" />
        </mxCell>
        <mxCell id="RAWwMJ1mJM9-SF2o9ze5-42" value="&lt;span style=&quot;font-size: 20px;&quot;&gt;implement&lt;/span&gt;" style="rounded=0;whiteSpace=wrap;html=1;fillColor=#CCCCFF;" parent="1" vertex="1">
          <mxGeometry x="1720" y="1100" width="120" height="40" as="geometry" />
        </mxCell>
        <mxCell id="RAWwMJ1mJM9-SF2o9ze5-43" value="&lt;span style=&quot;font-size: 20px;&quot;&gt;test&lt;/span&gt;" style="rounded=0;whiteSpace=wrap;html=1;fillColor=#CCCCFF;" parent="1" vertex="1">
          <mxGeometry x="1840" y="1100" width="120" height="40" as="geometry" />
        </mxCell>
        <mxCell id="RAWwMJ1mJM9-SF2o9ze5-44" value="&lt;span style=&quot;font-size: 20px;&quot;&gt;design&lt;/span&gt;" style="rounded=0;whiteSpace=wrap;html=1;fillColor=#9999FF;" parent="1" vertex="1">
          <mxGeometry x="1960" y="1100" width="120" height="40" as="geometry" />
        </mxCell>
        <mxCell id="RAWwMJ1mJM9-SF2o9ze5-45" value="&lt;span style=&quot;font-size: 20px;&quot;&gt;implement&lt;/span&gt;" style="rounded=0;whiteSpace=wrap;html=1;fillColor=#9999FF;" parent="1" vertex="1">
          <mxGeometry x="2080" y="1100" width="120" height="40" as="geometry" />
        </mxCell>
        <mxCell id="RAWwMJ1mJM9-SF2o9ze5-46" value="&lt;span style=&quot;font-size: 20px;&quot;&gt;test&lt;/span&gt;" style="rounded=0;whiteSpace=wrap;html=1;fillColor=#9999FF;" parent="1" vertex="1">
          <mxGeometry x="2200" y="1100" width="120" height="40" as="geometry" />
        </mxCell>
        <mxCell id="RAWwMJ1mJM9-SF2o9ze5-47" value="&lt;span style=&quot;font-size: 20px;&quot;&gt;design&lt;/span&gt;" style="rounded=0;whiteSpace=wrap;html=1;fillColor=#CCCCFF;" parent="1" vertex="1">
          <mxGeometry x="1720" y="1140" width="120" height="40" as="geometry" />
        </mxCell>
        <mxCell id="RAWwMJ1mJM9-SF2o9ze5-48" value="&lt;span style=&quot;font-size: 20px;&quot;&gt;implement&lt;/span&gt;" style="rounded=0;whiteSpace=wrap;html=1;fillColor=#CCCCFF;" parent="1" vertex="1">
          <mxGeometry x="1840" y="1140" width="120" height="40" as="geometry" />
        </mxCell>
        <mxCell id="RAWwMJ1mJM9-SF2o9ze5-49" value="&lt;span style=&quot;font-size: 20px;&quot;&gt;test&lt;/span&gt;" style="rounded=0;whiteSpace=wrap;html=1;fillColor=#CCCCFF;" parent="1" vertex="1">
          <mxGeometry x="1960" y="1140" width="120" height="40" as="geometry" />
        </mxCell>
        <mxCell id="RAWwMJ1mJM9-SF2o9ze5-50" value="&lt;span style=&quot;font-size: 20px;&quot;&gt;design&lt;/span&gt;" style="rounded=0;whiteSpace=wrap;html=1;fillColor=#9999FF;" parent="1" vertex="1">
          <mxGeometry x="2080" y="1140" width="120" height="40" as="geometry" />
        </mxCell>
        <mxCell id="RAWwMJ1mJM9-SF2o9ze5-51" value="&lt;span style=&quot;font-size: 20px;&quot;&gt;implement&lt;/span&gt;" style="rounded=0;whiteSpace=wrap;html=1;fillColor=#9999FF;" parent="1" vertex="1">
          <mxGeometry x="2200" y="1140" width="120" height="40" as="geometry" />
        </mxCell>
        <mxCell id="RAWwMJ1mJM9-SF2o9ze5-52" value="&lt;span style=&quot;font-size: 20px;&quot;&gt;test&lt;/span&gt;" style="rounded=0;whiteSpace=wrap;html=1;fillColor=#9999FF;" parent="1" vertex="1">
          <mxGeometry x="2320" y="1140" width="120" height="40" as="geometry" />
        </mxCell>
        <mxCell id="RAWwMJ1mJM9-SF2o9ze5-53" value="&lt;span style=&quot;font-size: 20px;&quot;&gt;design&lt;/span&gt;" style="rounded=0;whiteSpace=wrap;html=1;fillColor=#CCCCFF;" parent="1" vertex="1">
          <mxGeometry x="1840" y="1180" width="120" height="40" as="geometry" />
        </mxCell>
        <mxCell id="RAWwMJ1mJM9-SF2o9ze5-54" value="&lt;span style=&quot;font-size: 20px;&quot;&gt;implement&lt;/span&gt;" style="rounded=0;whiteSpace=wrap;html=1;fillColor=#CCCCFF;" parent="1" vertex="1">
          <mxGeometry x="1960" y="1180" width="120" height="40" as="geometry" />
        </mxCell>
        <mxCell id="RAWwMJ1mJM9-SF2o9ze5-55" value="&lt;span style=&quot;font-size: 20px;&quot;&gt;test&lt;/span&gt;" style="rounded=0;whiteSpace=wrap;html=1;fillColor=#CCCCFF;" parent="1" vertex="1">
          <mxGeometry x="2080" y="1180" width="120" height="40" as="geometry" />
        </mxCell>
        <mxCell id="RAWwMJ1mJM9-SF2o9ze5-56" value="&lt;span style=&quot;font-size: 20px;&quot;&gt;design&lt;/span&gt;" style="rounded=0;whiteSpace=wrap;html=1;fillColor=#9999FF;" parent="1" vertex="1">
          <mxGeometry x="2200" y="1180" width="120" height="40" as="geometry" />
        </mxCell>
        <mxCell id="RAWwMJ1mJM9-SF2o9ze5-57" value="&lt;span style=&quot;font-size: 20px;&quot;&gt;implement&lt;/span&gt;" style="rounded=0;whiteSpace=wrap;html=1;fillColor=#9999FF;" parent="1" vertex="1">
          <mxGeometry x="2320" y="1180" width="120" height="40" as="geometry" />
        </mxCell>
        <mxCell id="RAWwMJ1mJM9-SF2o9ze5-58" value="&lt;span style=&quot;font-size: 20px;&quot;&gt;test&lt;/span&gt;" style="rounded=0;whiteSpace=wrap;html=1;fillColor=#9999FF;" parent="1" vertex="1">
          <mxGeometry x="2440" y="1180" width="120" height="40" as="geometry" />
        </mxCell>
        <mxCell id="RAWwMJ1mJM9-SF2o9ze5-59" value="&lt;span style=&quot;font-size: 20px;&quot;&gt;design&lt;/span&gt;" style="rounded=0;whiteSpace=wrap;html=1;fillColor=#CCCCFF;" parent="1" vertex="1">
          <mxGeometry x="2200" y="1060" width="120" height="40" as="geometry" />
        </mxCell>
        <mxCell id="RAWwMJ1mJM9-SF2o9ze5-60" value="&lt;span style=&quot;font-size: 20px;&quot;&gt;implement&lt;/span&gt;" style="rounded=0;whiteSpace=wrap;html=1;fillColor=#CCCCFF;" parent="1" vertex="1">
          <mxGeometry x="2320" y="1060" width="120" height="40" as="geometry" />
        </mxCell>
        <mxCell id="RAWwMJ1mJM9-SF2o9ze5-61" value="&lt;span style=&quot;font-size: 20px;&quot;&gt;test&lt;/span&gt;" style="rounded=0;whiteSpace=wrap;html=1;fillColor=#CCCCFF;" parent="1" vertex="1">
          <mxGeometry x="2440" y="1060" width="120" height="40" as="geometry" />
        </mxCell>
        <mxCell id="RAWwMJ1mJM9-SF2o9ze5-62" value="&lt;span style=&quot;font-size: 20px;&quot;&gt;design&lt;/span&gt;" style="rounded=0;whiteSpace=wrap;html=1;fillColor=#CCCCFF;" parent="1" vertex="1">
          <mxGeometry x="2320" y="1100" width="120" height="40" as="geometry" />
        </mxCell>
        <mxCell id="RAWwMJ1mJM9-SF2o9ze5-63" value="&lt;span style=&quot;font-size: 20px;&quot;&gt;implement&lt;/span&gt;" style="rounded=0;whiteSpace=wrap;html=1;fillColor=#CCCCFF;" parent="1" vertex="1">
          <mxGeometry x="2440" y="1100" width="120" height="40" as="geometry" />
        </mxCell>
        <mxCell id="RAWwMJ1mJM9-SF2o9ze5-64" value="&lt;span style=&quot;font-size: 20px;&quot;&gt;test&lt;/span&gt;" style="rounded=0;whiteSpace=wrap;html=1;fillColor=#CCCCFF;" parent="1" vertex="1">
          <mxGeometry x="2560" y="1100" width="120" height="40" as="geometry" />
        </mxCell>
        <mxCell id="RAWwMJ1mJM9-SF2o9ze5-72" value="&lt;font style=&quot;font-size: 16px;&quot;&gt;design&lt;/font&gt;" style="rounded=0;whiteSpace=wrap;html=1;fillColor=#CCCCFF;" parent="1" vertex="1">
          <mxGeometry x="840" y="1320" width="80" height="40" as="geometry" />
        </mxCell>
        <mxCell id="RAWwMJ1mJM9-SF2o9ze5-73" value="&lt;font style=&quot;font-size: 16px;&quot;&gt;implement&lt;/font&gt;" style="rounded=0;whiteSpace=wrap;html=1;fillColor=#CCCCFF;" parent="1" vertex="1">
          <mxGeometry x="920" y="1320" width="80" height="40" as="geometry" />
        </mxCell>
        <mxCell id="RAWwMJ1mJM9-SF2o9ze5-74" value="&lt;font style=&quot;font-size: 16px;&quot;&gt;test&lt;/font&gt;" style="rounded=0;whiteSpace=wrap;html=1;fillColor=#CCCCFF;" parent="1" vertex="1">
          <mxGeometry x="1000" y="1320" width="80" height="40" as="geometry" />
        </mxCell>
        <mxCell id="RAWwMJ1mJM9-SF2o9ze5-75" value="&lt;font style=&quot;font-size: 16px;&quot;&gt;design&lt;/font&gt;" style="rounded=0;whiteSpace=wrap;html=1;fillColor=#CCCCFF;" parent="1" vertex="1">
          <mxGeometry x="920" y="1360" width="80" height="40" as="geometry" />
        </mxCell>
        <mxCell id="RAWwMJ1mJM9-SF2o9ze5-76" value="&lt;font style=&quot;font-size: 16px;&quot;&gt;implement&lt;/font&gt;" style="rounded=0;whiteSpace=wrap;html=1;fillColor=#CCCCFF;" parent="1" vertex="1">
          <mxGeometry x="1000" y="1360" width="80" height="40" as="geometry" />
        </mxCell>
        <mxCell id="RAWwMJ1mJM9-SF2o9ze5-77" value="&lt;font style=&quot;font-size: 16px;&quot;&gt;test&lt;/font&gt;" style="rounded=0;whiteSpace=wrap;html=1;fillColor=#CCCCFF;" parent="1" vertex="1">
          <mxGeometry x="1080" y="1360" width="80" height="40" as="geometry" />
        </mxCell>
        <mxCell id="RAWwMJ1mJM9-SF2o9ze5-78" value="&lt;font style=&quot;font-size: 16px;&quot;&gt;design&lt;/font&gt;" style="rounded=0;whiteSpace=wrap;html=1;fillColor=#CCCCFF;" parent="1" vertex="1">
          <mxGeometry x="1000" y="1400" width="80" height="40" as="geometry" />
        </mxCell>
        <mxCell id="RAWwMJ1mJM9-SF2o9ze5-79" value="&lt;font style=&quot;font-size: 16px;&quot;&gt;implement&lt;/font&gt;" style="rounded=0;whiteSpace=wrap;html=1;fillColor=#CCCCFF;" parent="1" vertex="1">
          <mxGeometry x="1080" y="1400" width="80" height="40" as="geometry" />
        </mxCell>
        <mxCell id="RAWwMJ1mJM9-SF2o9ze5-80" value="&lt;font style=&quot;font-size: 16px;&quot;&gt;test&lt;/font&gt;" style="rounded=0;whiteSpace=wrap;html=1;fillColor=#CCCCFF;" parent="1" vertex="1">
          <mxGeometry x="1160" y="1400" width="80" height="40" as="geometry" />
        </mxCell>
        <mxCell id="RAWwMJ1mJM9-SF2o9ze5-81" value="&lt;font style=&quot;font-size: 16px;&quot;&gt;design&lt;/font&gt;" style="rounded=0;whiteSpace=wrap;html=1;fillColor=#CCCCFF;" parent="1" vertex="1">
          <mxGeometry x="2200" y="1280" width="80" height="40" as="geometry" />
        </mxCell>
        <mxCell id="RAWwMJ1mJM9-SF2o9ze5-82" value="&lt;font style=&quot;font-size: 16px;&quot;&gt;implement&lt;/font&gt;" style="rounded=0;whiteSpace=wrap;html=1;fillColor=#CCCCFF;" parent="1" vertex="1">
          <mxGeometry x="2280" y="1280" width="80" height="40" as="geometry" />
        </mxCell>
        <mxCell id="RAWwMJ1mJM9-SF2o9ze5-83" value="&lt;font style=&quot;font-size: 16px;&quot;&gt;test&lt;/font&gt;" style="rounded=0;whiteSpace=wrap;html=1;fillColor=#CCCCFF;" parent="1" vertex="1">
          <mxGeometry x="2360" y="1280" width="80" height="40" as="geometry" />
        </mxCell>
        <mxCell id="RAWwMJ1mJM9-SF2o9ze5-84" value="&lt;font style=&quot;font-size: 16px;&quot;&gt;design&lt;/font&gt;" style="rounded=0;whiteSpace=wrap;html=1;fillColor=#CCCCFF;" parent="1" vertex="1">
          <mxGeometry x="2280" y="1320" width="80" height="40" as="geometry" />
        </mxCell>
        <mxCell id="RAWwMJ1mJM9-SF2o9ze5-85" value="&lt;font style=&quot;font-size: 16px;&quot;&gt;implement&lt;/font&gt;" style="rounded=0;whiteSpace=wrap;html=1;fillColor=#CCCCFF;" parent="1" vertex="1">
          <mxGeometry x="2360" y="1320" width="80" height="40" as="geometry" />
        </mxCell>
        <mxCell id="RAWwMJ1mJM9-SF2o9ze5-86" value="&lt;font style=&quot;font-size: 16px;&quot;&gt;test&lt;/font&gt;" style="rounded=0;whiteSpace=wrap;html=1;fillColor=#CCCCFF;" parent="1" vertex="1">
          <mxGeometry x="2440" y="1320" width="80" height="40" as="geometry" />
        </mxCell>
        <mxCell id="RAWwMJ1mJM9-SF2o9ze5-87" value="&lt;font style=&quot;font-size: 16px;&quot;&gt;design&lt;/font&gt;" style="rounded=0;whiteSpace=wrap;html=1;fillColor=#CCCCFF;" parent="1" vertex="1">
          <mxGeometry x="2360" y="1360" width="80" height="40" as="geometry" />
        </mxCell>
        <mxCell id="RAWwMJ1mJM9-SF2o9ze5-88" value="&lt;font style=&quot;font-size: 16px;&quot;&gt;implement&lt;/font&gt;" style="rounded=0;whiteSpace=wrap;html=1;fillColor=#CCCCFF;" parent="1" vertex="1">
          <mxGeometry x="2440" y="1360" width="80" height="40" as="geometry" />
        </mxCell>
        <mxCell id="RAWwMJ1mJM9-SF2o9ze5-89" value="&lt;font style=&quot;font-size: 16px;&quot;&gt;test&lt;/font&gt;" style="rounded=0;whiteSpace=wrap;html=1;fillColor=#CCCCFF;" parent="1" vertex="1">
          <mxGeometry x="2520" y="1360" width="80" height="40" as="geometry" />
        </mxCell>
        <mxCell id="RAWwMJ1mJM9-SF2o9ze5-90" value="&lt;font style=&quot;font-size: 16px;&quot;&gt;design&lt;/font&gt;" style="rounded=0;whiteSpace=wrap;html=1;fillColor=#CCCCFF;" parent="1" vertex="1">
          <mxGeometry x="2440" y="1400" width="80" height="40" as="geometry" />
        </mxCell>
        <mxCell id="RAWwMJ1mJM9-SF2o9ze5-91" value="&lt;font style=&quot;font-size: 16px;&quot;&gt;implement&lt;/font&gt;" style="rounded=0;whiteSpace=wrap;html=1;fillColor=#CCCCFF;" parent="1" vertex="1">
          <mxGeometry x="2520" y="1400" width="80" height="40" as="geometry" />
        </mxCell>
        <mxCell id="RAWwMJ1mJM9-SF2o9ze5-92" value="&lt;font style=&quot;font-size: 16px;&quot;&gt;test&lt;/font&gt;" style="rounded=0;whiteSpace=wrap;html=1;fillColor=#CCCCFF;" parent="1" vertex="1">
          <mxGeometry x="2600" y="1400" width="80" height="40" as="geometry" />
        </mxCell>
        <mxCell id="RAWwMJ1mJM9-SF2o9ze5-105" value="&lt;font style=&quot;font-size: 16px;&quot;&gt;design&lt;/font&gt;" style="rounded=0;whiteSpace=wrap;html=1;fillColor=#9999FF;" parent="1" vertex="1">
          <mxGeometry x="1000" y="1280" width="80" height="40" as="geometry" />
        </mxCell>
        <mxCell id="RAWwMJ1mJM9-SF2o9ze5-106" value="&lt;font style=&quot;font-size: 16px;&quot;&gt;implement&lt;/font&gt;" style="rounded=0;whiteSpace=wrap;html=1;fillColor=#9999FF;" parent="1" vertex="1">
          <mxGeometry x="1080" y="1280" width="80" height="40" as="geometry" />
        </mxCell>
        <mxCell id="RAWwMJ1mJM9-SF2o9ze5-107" value="&lt;font style=&quot;font-size: 16px;&quot;&gt;test&lt;/font&gt;" style="rounded=0;whiteSpace=wrap;html=1;fillColor=#9999FF;" parent="1" vertex="1">
          <mxGeometry x="1160" y="1280" width="80" height="40" as="geometry" />
        </mxCell>
        <mxCell id="RAWwMJ1mJM9-SF2o9ze5-108" value="&lt;font style=&quot;font-size: 16px;&quot;&gt;design&lt;/font&gt;" style="rounded=0;whiteSpace=wrap;html=1;fillColor=#9999FF;" parent="1" vertex="1">
          <mxGeometry x="1080" y="1320" width="80" height="40" as="geometry" />
        </mxCell>
        <mxCell id="RAWwMJ1mJM9-SF2o9ze5-109" value="&lt;font style=&quot;font-size: 16px;&quot;&gt;implement&lt;/font&gt;" style="rounded=0;whiteSpace=wrap;html=1;fillColor=#9999FF;" parent="1" vertex="1">
          <mxGeometry x="1160" y="1320" width="80" height="40" as="geometry" />
        </mxCell>
        <mxCell id="RAWwMJ1mJM9-SF2o9ze5-110" value="&lt;font style=&quot;font-size: 16px;&quot;&gt;test&lt;/font&gt;" style="rounded=0;whiteSpace=wrap;html=1;fillColor=#9999FF;" parent="1" vertex="1">
          <mxGeometry x="1240" y="1320" width="80" height="40" as="geometry" />
        </mxCell>
        <mxCell id="RAWwMJ1mJM9-SF2o9ze5-111" value="&lt;font style=&quot;font-size: 16px;&quot;&gt;design&lt;/font&gt;" style="rounded=0;whiteSpace=wrap;html=1;fillColor=#9999FF;" parent="1" vertex="1">
          <mxGeometry x="1160" y="1360" width="80" height="40" as="geometry" />
        </mxCell>
        <mxCell id="RAWwMJ1mJM9-SF2o9ze5-112" value="&lt;font style=&quot;font-size: 16px;&quot;&gt;implement&lt;/font&gt;" style="rounded=0;whiteSpace=wrap;html=1;fillColor=#9999FF;" parent="1" vertex="1">
          <mxGeometry x="1240" y="1360" width="80" height="40" as="geometry" />
        </mxCell>
        <mxCell id="RAWwMJ1mJM9-SF2o9ze5-113" value="&lt;font style=&quot;font-size: 16px;&quot;&gt;test&lt;/font&gt;" style="rounded=0;whiteSpace=wrap;html=1;fillColor=#9999FF;" parent="1" vertex="1">
          <mxGeometry x="1320" y="1360" width="80" height="40" as="geometry" />
        </mxCell>
        <mxCell id="RAWwMJ1mJM9-SF2o9ze5-114" value="&lt;font style=&quot;font-size: 16px;&quot;&gt;design&lt;/font&gt;" style="rounded=0;whiteSpace=wrap;html=1;fillColor=#9999FF;" parent="1" vertex="1">
          <mxGeometry x="1240" y="1400" width="80" height="40" as="geometry" />
        </mxCell>
        <mxCell id="RAWwMJ1mJM9-SF2o9ze5-115" value="&lt;font style=&quot;font-size: 16px;&quot;&gt;implement&lt;/font&gt;" style="rounded=0;whiteSpace=wrap;html=1;fillColor=#9999FF;" parent="1" vertex="1">
          <mxGeometry x="1320" y="1400" width="80" height="40" as="geometry" />
        </mxCell>
        <mxCell id="RAWwMJ1mJM9-SF2o9ze5-116" value="&lt;font style=&quot;font-size: 16px;&quot;&gt;test&lt;/font&gt;" style="rounded=0;whiteSpace=wrap;html=1;fillColor=#9999FF;" parent="1" vertex="1">
          <mxGeometry x="1400" y="1400" width="80" height="40" as="geometry" />
        </mxCell>
        <mxCell id="RAWwMJ1mJM9-SF2o9ze5-129" value="&lt;font style=&quot;font-size: 16px;&quot;&gt;design&lt;/font&gt;" style="rounded=0;whiteSpace=wrap;html=1;fillColor=#CCCCFF;" parent="1" vertex="1">
          <mxGeometry x="1240" y="1280" width="80" height="40" as="geometry" />
        </mxCell>
        <mxCell id="RAWwMJ1mJM9-SF2o9ze5-130" value="&lt;font style=&quot;font-size: 16px;&quot;&gt;implement&lt;/font&gt;" style="rounded=0;whiteSpace=wrap;html=1;fillColor=#CCCCFF;" parent="1" vertex="1">
          <mxGeometry x="1320" y="1280" width="80" height="40" as="geometry" />
        </mxCell>
        <mxCell id="RAWwMJ1mJM9-SF2o9ze5-131" value="&lt;font style=&quot;font-size: 16px;&quot;&gt;test&lt;/font&gt;" style="rounded=0;whiteSpace=wrap;html=1;fillColor=#CCCCFF;" parent="1" vertex="1">
          <mxGeometry x="1400" y="1280" width="80" height="40" as="geometry" />
        </mxCell>
        <mxCell id="RAWwMJ1mJM9-SF2o9ze5-132" value="&lt;font style=&quot;font-size: 16px;&quot;&gt;design&lt;/font&gt;" style="rounded=0;whiteSpace=wrap;html=1;fillColor=#CCCCFF;" parent="1" vertex="1">
          <mxGeometry x="1320" y="1320" width="80" height="40" as="geometry" />
        </mxCell>
        <mxCell id="RAWwMJ1mJM9-SF2o9ze5-133" value="&lt;font style=&quot;font-size: 16px;&quot;&gt;implement&lt;/font&gt;" style="rounded=0;whiteSpace=wrap;html=1;fillColor=#CCCCFF;" parent="1" vertex="1">
          <mxGeometry x="1400" y="1320" width="80" height="40" as="geometry" />
        </mxCell>
        <mxCell id="RAWwMJ1mJM9-SF2o9ze5-134" value="&lt;font style=&quot;font-size: 16px;&quot;&gt;test&lt;/font&gt;" style="rounded=0;whiteSpace=wrap;html=1;fillColor=#CCCCFF;" parent="1" vertex="1">
          <mxGeometry x="1480" y="1320" width="80" height="40" as="geometry" />
        </mxCell>
        <mxCell id="RAWwMJ1mJM9-SF2o9ze5-135" value="&lt;font style=&quot;font-size: 16px;&quot;&gt;design&lt;/font&gt;" style="rounded=0;whiteSpace=wrap;html=1;fillColor=#CCCCFF;" parent="1" vertex="1">
          <mxGeometry x="1400" y="1360" width="80" height="40" as="geometry" />
        </mxCell>
        <mxCell id="RAWwMJ1mJM9-SF2o9ze5-136" value="&lt;font style=&quot;font-size: 16px;&quot;&gt;implement&lt;/font&gt;" style="rounded=0;whiteSpace=wrap;html=1;fillColor=#CCCCFF;" parent="1" vertex="1">
          <mxGeometry x="1480" y="1360" width="80" height="40" as="geometry" />
        </mxCell>
        <mxCell id="RAWwMJ1mJM9-SF2o9ze5-137" value="&lt;font style=&quot;font-size: 16px;&quot;&gt;test&lt;/font&gt;" style="rounded=0;whiteSpace=wrap;html=1;fillColor=#CCCCFF;" parent="1" vertex="1">
          <mxGeometry x="1560" y="1360" width="80" height="40" as="geometry" />
        </mxCell>
        <mxCell id="RAWwMJ1mJM9-SF2o9ze5-138" value="&lt;font style=&quot;font-size: 16px;&quot;&gt;design&lt;/font&gt;" style="rounded=0;whiteSpace=wrap;html=1;fillColor=#CCCCFF;" parent="1" vertex="1">
          <mxGeometry x="1480" y="1400" width="80" height="40" as="geometry" />
        </mxCell>
        <mxCell id="RAWwMJ1mJM9-SF2o9ze5-139" value="&lt;font style=&quot;font-size: 16px;&quot;&gt;implement&lt;/font&gt;" style="rounded=0;whiteSpace=wrap;html=1;fillColor=#CCCCFF;" parent="1" vertex="1">
          <mxGeometry x="1560" y="1400" width="80" height="40" as="geometry" />
        </mxCell>
        <mxCell id="RAWwMJ1mJM9-SF2o9ze5-140" value="&lt;font style=&quot;font-size: 16px;&quot;&gt;test&lt;/font&gt;" style="rounded=0;whiteSpace=wrap;html=1;fillColor=#CCCCFF;" parent="1" vertex="1">
          <mxGeometry x="1640" y="1400" width="80" height="40" as="geometry" />
        </mxCell>
        <mxCell id="RAWwMJ1mJM9-SF2o9ze5-141" value="&lt;font style=&quot;font-size: 16px;&quot;&gt;design&lt;/font&gt;" style="rounded=0;whiteSpace=wrap;html=1;fillColor=#9999FF;" parent="1" vertex="1">
          <mxGeometry x="1480" y="1280" width="80" height="40" as="geometry" />
        </mxCell>
        <mxCell id="RAWwMJ1mJM9-SF2o9ze5-142" value="&lt;font style=&quot;font-size: 16px;&quot;&gt;implement&lt;/font&gt;" style="rounded=0;whiteSpace=wrap;html=1;fillColor=#9999FF;" parent="1" vertex="1">
          <mxGeometry x="1560" y="1280" width="80" height="40" as="geometry" />
        </mxCell>
        <mxCell id="RAWwMJ1mJM9-SF2o9ze5-143" value="&lt;font style=&quot;font-size: 16px;&quot;&gt;test&lt;/font&gt;" style="rounded=0;whiteSpace=wrap;html=1;fillColor=#9999FF;" parent="1" vertex="1">
          <mxGeometry x="1640" y="1280" width="80" height="40" as="geometry" />
        </mxCell>
        <mxCell id="RAWwMJ1mJM9-SF2o9ze5-144" value="&lt;font style=&quot;font-size: 16px;&quot;&gt;design&lt;/font&gt;" style="rounded=0;whiteSpace=wrap;html=1;fillColor=#9999FF;" parent="1" vertex="1">
          <mxGeometry x="1560" y="1320" width="80" height="40" as="geometry" />
        </mxCell>
        <mxCell id="RAWwMJ1mJM9-SF2o9ze5-145" value="&lt;font style=&quot;font-size: 16px;&quot;&gt;implement&lt;/font&gt;" style="rounded=0;whiteSpace=wrap;html=1;fillColor=#9999FF;" parent="1" vertex="1">
          <mxGeometry x="1640" y="1320" width="80" height="40" as="geometry" />
        </mxCell>
        <mxCell id="RAWwMJ1mJM9-SF2o9ze5-146" value="&lt;font style=&quot;font-size: 16px;&quot;&gt;test&lt;/font&gt;" style="rounded=0;whiteSpace=wrap;html=1;fillColor=#9999FF;" parent="1" vertex="1">
          <mxGeometry x="1720" y="1320" width="80" height="40" as="geometry" />
        </mxCell>
        <mxCell id="RAWwMJ1mJM9-SF2o9ze5-147" value="&lt;font style=&quot;font-size: 16px;&quot;&gt;design&lt;/font&gt;" style="rounded=0;whiteSpace=wrap;html=1;fillColor=#9999FF;" parent="1" vertex="1">
          <mxGeometry x="1640" y="1360" width="80" height="40" as="geometry" />
        </mxCell>
        <mxCell id="RAWwMJ1mJM9-SF2o9ze5-148" value="&lt;font style=&quot;font-size: 16px;&quot;&gt;implement&lt;/font&gt;" style="rounded=0;whiteSpace=wrap;html=1;fillColor=#9999FF;" parent="1" vertex="1">
          <mxGeometry x="1720" y="1360" width="80" height="40" as="geometry" />
        </mxCell>
        <mxCell id="RAWwMJ1mJM9-SF2o9ze5-149" value="&lt;font style=&quot;font-size: 16px;&quot;&gt;test&lt;/font&gt;" style="rounded=0;whiteSpace=wrap;html=1;fillColor=#9999FF;" parent="1" vertex="1">
          <mxGeometry x="1800" y="1360" width="80" height="40" as="geometry" />
        </mxCell>
        <mxCell id="RAWwMJ1mJM9-SF2o9ze5-150" value="&lt;font style=&quot;font-size: 16px;&quot;&gt;design&lt;/font&gt;" style="rounded=0;whiteSpace=wrap;html=1;fillColor=#9999FF;" parent="1" vertex="1">
          <mxGeometry x="1720" y="1400" width="80" height="40" as="geometry" />
        </mxCell>
        <mxCell id="RAWwMJ1mJM9-SF2o9ze5-151" value="&lt;font style=&quot;font-size: 16px;&quot;&gt;implement&lt;/font&gt;" style="rounded=0;whiteSpace=wrap;html=1;fillColor=#9999FF;" parent="1" vertex="1">
          <mxGeometry x="1800" y="1400" width="80" height="40" as="geometry" />
        </mxCell>
        <mxCell id="RAWwMJ1mJM9-SF2o9ze5-152" value="&lt;font style=&quot;font-size: 16px;&quot;&gt;test&lt;/font&gt;" style="rounded=0;whiteSpace=wrap;html=1;fillColor=#9999FF;" parent="1" vertex="1">
          <mxGeometry x="1880" y="1400" width="80" height="40" as="geometry" />
        </mxCell>
        <mxCell id="RAWwMJ1mJM9-SF2o9ze5-153" value="&lt;font style=&quot;font-size: 16px;&quot;&gt;design&lt;/font&gt;" style="rounded=0;whiteSpace=wrap;html=1;fillColor=#CCCCFF;" parent="1" vertex="1">
          <mxGeometry x="1720" y="1280" width="80" height="40" as="geometry" />
        </mxCell>
        <mxCell id="RAWwMJ1mJM9-SF2o9ze5-154" value="&lt;font style=&quot;font-size: 16px;&quot;&gt;implement&lt;/font&gt;" style="rounded=0;whiteSpace=wrap;html=1;fillColor=#CCCCFF;" parent="1" vertex="1">
          <mxGeometry x="1800" y="1280" width="80" height="40" as="geometry" />
        </mxCell>
        <mxCell id="RAWwMJ1mJM9-SF2o9ze5-155" value="&lt;font style=&quot;font-size: 16px;&quot;&gt;test&lt;/font&gt;" style="rounded=0;whiteSpace=wrap;html=1;fillColor=#CCCCFF;" parent="1" vertex="1">
          <mxGeometry x="1880" y="1280" width="80" height="40" as="geometry" />
        </mxCell>
        <mxCell id="RAWwMJ1mJM9-SF2o9ze5-156" value="&lt;font style=&quot;font-size: 16px;&quot;&gt;design&lt;/font&gt;" style="rounded=0;whiteSpace=wrap;html=1;fillColor=#CCCCFF;" parent="1" vertex="1">
          <mxGeometry x="1800" y="1320" width="80" height="40" as="geometry" />
        </mxCell>
        <mxCell id="RAWwMJ1mJM9-SF2o9ze5-157" value="&lt;font style=&quot;font-size: 16px;&quot;&gt;implement&lt;/font&gt;" style="rounded=0;whiteSpace=wrap;html=1;fillColor=#CCCCFF;" parent="1" vertex="1">
          <mxGeometry x="1880" y="1320" width="80" height="40" as="geometry" />
        </mxCell>
        <mxCell id="RAWwMJ1mJM9-SF2o9ze5-158" value="&lt;font style=&quot;font-size: 16px;&quot;&gt;test&lt;/font&gt;" style="rounded=0;whiteSpace=wrap;html=1;fillColor=#CCCCFF;" parent="1" vertex="1">
          <mxGeometry x="1960" y="1320" width="80" height="40" as="geometry" />
        </mxCell>
        <mxCell id="RAWwMJ1mJM9-SF2o9ze5-159" value="&lt;font style=&quot;font-size: 16px;&quot;&gt;design&lt;/font&gt;" style="rounded=0;whiteSpace=wrap;html=1;fillColor=#CCCCFF;" parent="1" vertex="1">
          <mxGeometry x="1880" y="1360" width="80" height="40" as="geometry" />
        </mxCell>
        <mxCell id="RAWwMJ1mJM9-SF2o9ze5-160" value="&lt;font style=&quot;font-size: 16px;&quot;&gt;implement&lt;/font&gt;" style="rounded=0;whiteSpace=wrap;html=1;fillColor=#CCCCFF;" parent="1" vertex="1">
          <mxGeometry x="1960" y="1360" width="80" height="40" as="geometry" />
        </mxCell>
        <mxCell id="RAWwMJ1mJM9-SF2o9ze5-161" value="&lt;font style=&quot;font-size: 16px;&quot;&gt;test&lt;/font&gt;" style="rounded=0;whiteSpace=wrap;html=1;fillColor=#CCCCFF;" parent="1" vertex="1">
          <mxGeometry x="2040" y="1360" width="80" height="40" as="geometry" />
        </mxCell>
        <mxCell id="RAWwMJ1mJM9-SF2o9ze5-162" value="&lt;font style=&quot;font-size: 16px;&quot;&gt;design&lt;/font&gt;" style="rounded=0;whiteSpace=wrap;html=1;fillColor=#CCCCFF;" parent="1" vertex="1">
          <mxGeometry x="1960" y="1400" width="80" height="40" as="geometry" />
        </mxCell>
        <mxCell id="RAWwMJ1mJM9-SF2o9ze5-163" value="&lt;font style=&quot;font-size: 16px;&quot;&gt;implement&lt;/font&gt;" style="rounded=0;whiteSpace=wrap;html=1;fillColor=#CCCCFF;" parent="1" vertex="1">
          <mxGeometry x="2040" y="1400" width="80" height="40" as="geometry" />
        </mxCell>
        <mxCell id="RAWwMJ1mJM9-SF2o9ze5-164" value="&lt;font style=&quot;font-size: 16px;&quot;&gt;test&lt;/font&gt;" style="rounded=0;whiteSpace=wrap;html=1;fillColor=#CCCCFF;" parent="1" vertex="1">
          <mxGeometry x="2120" y="1400" width="80" height="40" as="geometry" />
        </mxCell>
        <mxCell id="RAWwMJ1mJM9-SF2o9ze5-165" value="&lt;font style=&quot;font-size: 16px;&quot;&gt;design&lt;/font&gt;" style="rounded=0;whiteSpace=wrap;html=1;fillColor=#9999FF;" parent="1" vertex="1">
          <mxGeometry x="1960" y="1280" width="80" height="40" as="geometry" />
        </mxCell>
        <mxCell id="RAWwMJ1mJM9-SF2o9ze5-166" value="&lt;font style=&quot;font-size: 16px;&quot;&gt;implement&lt;/font&gt;" style="rounded=0;whiteSpace=wrap;html=1;fillColor=#9999FF;" parent="1" vertex="1">
          <mxGeometry x="2040" y="1280" width="80" height="40" as="geometry" />
        </mxCell>
        <mxCell id="RAWwMJ1mJM9-SF2o9ze5-167" value="&lt;font style=&quot;font-size: 16px;&quot;&gt;test&lt;/font&gt;" style="rounded=0;whiteSpace=wrap;html=1;fillColor=#9999FF;" parent="1" vertex="1">
          <mxGeometry x="2120" y="1280" width="80" height="40" as="geometry" />
        </mxCell>
        <mxCell id="RAWwMJ1mJM9-SF2o9ze5-168" value="&lt;font style=&quot;font-size: 16px;&quot;&gt;design&lt;/font&gt;" style="rounded=0;whiteSpace=wrap;html=1;fillColor=#9999FF;" parent="1" vertex="1">
          <mxGeometry x="2040" y="1320" width="80" height="40" as="geometry" />
        </mxCell>
        <mxCell id="RAWwMJ1mJM9-SF2o9ze5-169" value="&lt;font style=&quot;font-size: 16px;&quot;&gt;implement&lt;/font&gt;" style="rounded=0;whiteSpace=wrap;html=1;fillColor=#9999FF;" parent="1" vertex="1">
          <mxGeometry x="2120" y="1320" width="80" height="40" as="geometry" />
        </mxCell>
        <mxCell id="RAWwMJ1mJM9-SF2o9ze5-170" value="&lt;font style=&quot;font-size: 16px;&quot;&gt;test&lt;/font&gt;" style="rounded=0;whiteSpace=wrap;html=1;fillColor=#9999FF;" parent="1" vertex="1">
          <mxGeometry x="2200" y="1320" width="80" height="40" as="geometry" />
        </mxCell>
        <mxCell id="RAWwMJ1mJM9-SF2o9ze5-171" value="&lt;font style=&quot;font-size: 16px;&quot;&gt;design&lt;/font&gt;" style="rounded=0;whiteSpace=wrap;html=1;fillColor=#9999FF;" parent="1" vertex="1">
          <mxGeometry x="2120" y="1360" width="80" height="40" as="geometry" />
        </mxCell>
        <mxCell id="RAWwMJ1mJM9-SF2o9ze5-172" value="&lt;font style=&quot;font-size: 16px;&quot;&gt;implement&lt;/font&gt;" style="rounded=0;whiteSpace=wrap;html=1;fillColor=#9999FF;" parent="1" vertex="1">
          <mxGeometry x="2200" y="1360" width="80" height="40" as="geometry" />
        </mxCell>
        <mxCell id="RAWwMJ1mJM9-SF2o9ze5-173" value="&lt;font style=&quot;font-size: 16px;&quot;&gt;test&lt;/font&gt;" style="rounded=0;whiteSpace=wrap;html=1;fillColor=#9999FF;" parent="1" vertex="1">
          <mxGeometry x="2280" y="1360" width="80" height="40" as="geometry" />
        </mxCell>
        <mxCell id="RAWwMJ1mJM9-SF2o9ze5-174" value="&lt;font style=&quot;font-size: 16px;&quot;&gt;design&lt;/font&gt;" style="rounded=0;whiteSpace=wrap;html=1;fillColor=#9999FF;" parent="1" vertex="1">
          <mxGeometry x="2200" y="1400" width="80" height="40" as="geometry" />
        </mxCell>
        <mxCell id="RAWwMJ1mJM9-SF2o9ze5-175" value="&lt;font style=&quot;font-size: 16px;&quot;&gt;implement&lt;/font&gt;" style="rounded=0;whiteSpace=wrap;html=1;fillColor=#9999FF;" parent="1" vertex="1">
          <mxGeometry x="2280" y="1400" width="80" height="40" as="geometry" />
        </mxCell>
        <mxCell id="RAWwMJ1mJM9-SF2o9ze5-176" value="&lt;font style=&quot;font-size: 16px;&quot;&gt;test&lt;/font&gt;" style="rounded=0;whiteSpace=wrap;html=1;fillColor=#9999FF;" parent="1" vertex="1">
          <mxGeometry x="2360" y="1400" width="80" height="40" as="geometry" />
        </mxCell>
        <mxCell id="RAWwMJ1mJM9-SF2o9ze5-177" value="&lt;font style=&quot;font-size: 20px&quot;&gt;SP&lt;sub&gt;m&lt;/sub&gt;&lt;/font&gt;" style="rounded=0;whiteSpace=wrap;html=1;fillColor=#dae8fc;" parent="1" vertex="1">
          <mxGeometry x="760" y="1010" width="120" height="40" as="geometry" />
        </mxCell>
        <mxCell id="RAWwMJ1mJM9-SF2o9ze5-178" value="&lt;font style=&quot;font-size: 20px&quot;&gt;SP&lt;sub&gt;m+1&lt;/sub&gt;&lt;/font&gt;" style="rounded=0;whiteSpace=wrap;html=1;fillColor=#dae8fc;" parent="1" vertex="1">
          <mxGeometry x="880" y="1010" width="120" height="40" as="geometry" />
        </mxCell>
        <mxCell id="RAWwMJ1mJM9-SF2o9ze5-179" value="&lt;font style=&quot;font-size: 20px&quot;&gt;SP&lt;sub&gt;m+2&lt;/sub&gt;&lt;/font&gt;" style="rounded=0;whiteSpace=wrap;html=1;fillColor=#dae8fc;" parent="1" vertex="1">
          <mxGeometry x="1000" y="1010" width="120" height="40" as="geometry" />
        </mxCell>
        <mxCell id="RAWwMJ1mJM9-SF2o9ze5-180" value="&lt;font style=&quot;font-size: 20px&quot;&gt;SP&lt;sub&gt;m&lt;/sub&gt;&lt;/font&gt;" style="rounded=0;whiteSpace=wrap;html=1;fillColor=#dae8fc;" parent="1" vertex="1">
          <mxGeometry x="760" y="1230" width="80" height="40" as="geometry" />
        </mxCell>
        <mxCell id="RAWwMJ1mJM9-SF2o9ze5-181" value="&lt;font style=&quot;font-size: 20px&quot;&gt;SP&lt;sub&gt;m+1&lt;/sub&gt;&lt;/font&gt;" style="rounded=0;whiteSpace=wrap;html=1;fillColor=#dae8fc;" parent="1" vertex="1">
          <mxGeometry x="840" y="1230" width="80" height="40" as="geometry" />
        </mxCell>
        <mxCell id="RAWwMJ1mJM9-SF2o9ze5-182" value="&lt;font style=&quot;font-size: 20px&quot;&gt;SP&lt;sub&gt;m+2&lt;/sub&gt;&lt;/font&gt;" style="rounded=0;whiteSpace=wrap;html=1;fillColor=#dae8fc;" parent="1" vertex="1">
          <mxGeometry x="920" y="1230" width="80" height="40" as="geometry" />
        </mxCell>
        <mxCell id="RAWwMJ1mJM9-SF2o9ze5-183" value="&lt;font style=&quot;font-size: 20px&quot;&gt;SP&lt;sub&gt;m+3&lt;/sub&gt;&lt;/font&gt;" style="rounded=0;whiteSpace=wrap;html=1;fillColor=#dae8fc;" parent="1" vertex="1">
          <mxGeometry x="1000" y="1230" width="80" height="40" as="geometry" />
        </mxCell>
        <mxCell id="RAWwMJ1mJM9-SF2o9ze5-184" value="&lt;font style=&quot;font-size: 20px&quot;&gt;SP&lt;sub&gt;m+4&lt;/sub&gt;&lt;/font&gt;" style="rounded=0;whiteSpace=wrap;html=1;fillColor=#dae8fc;" parent="1" vertex="1">
          <mxGeometry x="1080" y="1230" width="80" height="40" as="geometry" />
        </mxCell>
        <mxCell id="RAWwMJ1mJM9-SF2o9ze5-185" value="&lt;font style=&quot;font-size: 20px&quot;&gt;SP&lt;sub&gt;m+5&lt;/sub&gt;&lt;/font&gt;" style="rounded=0;whiteSpace=wrap;html=1;fillColor=#dae8fc;" parent="1" vertex="1">
          <mxGeometry x="1160" y="1230" width="80" height="40" as="geometry" />
        </mxCell>
        <mxCell id="RAWwMJ1mJM9-SF2o9ze5-186" value="&lt;font style=&quot;font-size: 20px&quot;&gt;SP&lt;sub&gt;m+3&lt;/sub&gt;&lt;/font&gt;" style="rounded=0;whiteSpace=wrap;html=1;fillColor=#dae8fc;" parent="1" vertex="1">
          <mxGeometry x="1120" y="1010" width="120" height="40" as="geometry" />
        </mxCell>
        <mxCell id="RAWwMJ1mJM9-SF2o9ze5-187" value="&lt;font style=&quot;font-size: 20px&quot;&gt;SP&lt;sub&gt;m&lt;/sub&gt;&lt;/font&gt;" style="rounded=0;whiteSpace=wrap;html=1;fillColor=#dae8fc;" parent="1" vertex="1">
          <mxGeometry x="1240" y="1010" width="120" height="40" as="geometry" />
        </mxCell>
        <mxCell id="RAWwMJ1mJM9-SF2o9ze5-188" value="&lt;font style=&quot;font-size: 20px&quot;&gt;SP&lt;sub&gt;m+1&lt;/sub&gt;&lt;/font&gt;" style="rounded=0;whiteSpace=wrap;html=1;fillColor=#dae8fc;" parent="1" vertex="1">
          <mxGeometry x="1360" y="1010" width="120" height="40" as="geometry" />
        </mxCell>
        <mxCell id="RAWwMJ1mJM9-SF2o9ze5-189" value="&lt;font style=&quot;font-size: 20px&quot;&gt;SP&lt;sub&gt;m+2&lt;/sub&gt;&lt;/font&gt;" style="rounded=0;whiteSpace=wrap;html=1;fillColor=#dae8fc;" parent="1" vertex="1">
          <mxGeometry x="1480" y="1010" width="120" height="40" as="geometry" />
        </mxCell>
        <mxCell id="RAWwMJ1mJM9-SF2o9ze5-190" value="&lt;font style=&quot;font-size: 20px&quot;&gt;SP&lt;sub&gt;m&lt;/sub&gt;&lt;/font&gt;" style="rounded=0;whiteSpace=wrap;html=1;fillColor=#dae8fc;" parent="1" vertex="1">
          <mxGeometry x="1240" y="1230" width="80" height="40" as="geometry" />
        </mxCell>
        <mxCell id="RAWwMJ1mJM9-SF2o9ze5-191" value="&lt;font style=&quot;font-size: 20px&quot;&gt;SP&lt;sub&gt;m+1&lt;/sub&gt;&lt;/font&gt;" style="rounded=0;whiteSpace=wrap;html=1;fillColor=#dae8fc;" parent="1" vertex="1">
          <mxGeometry x="1320" y="1230" width="80" height="40" as="geometry" />
        </mxCell>
        <mxCell id="RAWwMJ1mJM9-SF2o9ze5-192" value="&lt;font style=&quot;font-size: 20px&quot;&gt;SP&lt;sub&gt;m+2&lt;/sub&gt;&lt;/font&gt;" style="rounded=0;whiteSpace=wrap;html=1;fillColor=#dae8fc;" parent="1" vertex="1">
          <mxGeometry x="1400" y="1230" width="80" height="40" as="geometry" />
        </mxCell>
        <mxCell id="RAWwMJ1mJM9-SF2o9ze5-193" value="&lt;font style=&quot;font-size: 20px&quot;&gt;SP&lt;sub&gt;m+3&lt;/sub&gt;&lt;/font&gt;" style="rounded=0;whiteSpace=wrap;html=1;fillColor=#dae8fc;" parent="1" vertex="1">
          <mxGeometry x="1480" y="1230" width="80" height="40" as="geometry" />
        </mxCell>
        <mxCell id="RAWwMJ1mJM9-SF2o9ze5-194" value="&lt;font style=&quot;font-size: 20px&quot;&gt;SP&lt;sub&gt;m+4&lt;/sub&gt;&lt;/font&gt;" style="rounded=0;whiteSpace=wrap;html=1;fillColor=#dae8fc;" parent="1" vertex="1">
          <mxGeometry x="1560" y="1230" width="80" height="40" as="geometry" />
        </mxCell>
        <mxCell id="RAWwMJ1mJM9-SF2o9ze5-195" value="&lt;font style=&quot;font-size: 20px&quot;&gt;SP&lt;sub&gt;m+5&lt;/sub&gt;&lt;/font&gt;" style="rounded=0;whiteSpace=wrap;html=1;fillColor=#dae8fc;" parent="1" vertex="1">
          <mxGeometry x="1640" y="1230" width="80" height="40" as="geometry" />
        </mxCell>
        <mxCell id="RAWwMJ1mJM9-SF2o9ze5-196" value="&lt;font style=&quot;font-size: 20px&quot;&gt;SP&lt;sub&gt;m+3&lt;/sub&gt;&lt;/font&gt;" style="rounded=0;whiteSpace=wrap;html=1;fillColor=#dae8fc;" parent="1" vertex="1">
          <mxGeometry x="1600" y="1010" width="120" height="40" as="geometry" />
        </mxCell>
        <mxCell id="RAWwMJ1mJM9-SF2o9ze5-197" value="&lt;font style=&quot;font-size: 20px&quot;&gt;SP&lt;sub&gt;m&lt;/sub&gt;&lt;/font&gt;" style="rounded=0;whiteSpace=wrap;html=1;fillColor=#dae8fc;" parent="1" vertex="1">
          <mxGeometry x="1720" y="1010" width="120" height="40" as="geometry" />
        </mxCell>
        <mxCell id="RAWwMJ1mJM9-SF2o9ze5-198" value="&lt;font style=&quot;font-size: 20px&quot;&gt;SP&lt;sub&gt;m+1&lt;/sub&gt;&lt;/font&gt;" style="rounded=0;whiteSpace=wrap;html=1;fillColor=#dae8fc;" parent="1" vertex="1">
          <mxGeometry x="1840" y="1010" width="120" height="40" as="geometry" />
        </mxCell>
        <mxCell id="RAWwMJ1mJM9-SF2o9ze5-199" value="&lt;font style=&quot;font-size: 20px&quot;&gt;SP&lt;sub&gt;m+2&lt;/sub&gt;&lt;/font&gt;" style="rounded=0;whiteSpace=wrap;html=1;fillColor=#dae8fc;" parent="1" vertex="1">
          <mxGeometry x="1960" y="1010" width="120" height="40" as="geometry" />
        </mxCell>
        <mxCell id="RAWwMJ1mJM9-SF2o9ze5-200" value="&lt;font style=&quot;font-size: 20px&quot;&gt;SP&lt;sub&gt;m&lt;/sub&gt;&lt;/font&gt;" style="rounded=0;whiteSpace=wrap;html=1;fillColor=#dae8fc;" parent="1" vertex="1">
          <mxGeometry x="1720" y="1230" width="80" height="40" as="geometry" />
        </mxCell>
        <mxCell id="RAWwMJ1mJM9-SF2o9ze5-201" value="&lt;font style=&quot;font-size: 20px&quot;&gt;SP&lt;sub&gt;m+1&lt;/sub&gt;&lt;/font&gt;" style="rounded=0;whiteSpace=wrap;html=1;fillColor=#dae8fc;" parent="1" vertex="1">
          <mxGeometry x="1800" y="1230" width="80" height="40" as="geometry" />
        </mxCell>
        <mxCell id="RAWwMJ1mJM9-SF2o9ze5-202" value="&lt;font style=&quot;font-size: 20px&quot;&gt;SP&lt;sub&gt;m+2&lt;/sub&gt;&lt;/font&gt;" style="rounded=0;whiteSpace=wrap;html=1;fillColor=#dae8fc;" parent="1" vertex="1">
          <mxGeometry x="1880" y="1230" width="80" height="40" as="geometry" />
        </mxCell>
        <mxCell id="RAWwMJ1mJM9-SF2o9ze5-203" value="&lt;font style=&quot;font-size: 20px&quot;&gt;SP&lt;sub&gt;m+3&lt;/sub&gt;&lt;/font&gt;" style="rounded=0;whiteSpace=wrap;html=1;fillColor=#dae8fc;" parent="1" vertex="1">
          <mxGeometry x="1960" y="1230" width="80" height="40" as="geometry" />
        </mxCell>
        <mxCell id="RAWwMJ1mJM9-SF2o9ze5-204" value="&lt;font style=&quot;font-size: 20px&quot;&gt;SP&lt;sub&gt;m+4&lt;/sub&gt;&lt;/font&gt;" style="rounded=0;whiteSpace=wrap;html=1;fillColor=#dae8fc;" parent="1" vertex="1">
          <mxGeometry x="2040" y="1230" width="80" height="40" as="geometry" />
        </mxCell>
        <mxCell id="RAWwMJ1mJM9-SF2o9ze5-205" value="&lt;font style=&quot;font-size: 20px&quot;&gt;SP&lt;sub&gt;m+5&lt;/sub&gt;&lt;/font&gt;" style="rounded=0;whiteSpace=wrap;html=1;fillColor=#dae8fc;" parent="1" vertex="1">
          <mxGeometry x="2120" y="1230" width="80" height="40" as="geometry" />
        </mxCell>
        <mxCell id="RAWwMJ1mJM9-SF2o9ze5-206" value="&lt;font style=&quot;font-size: 20px&quot;&gt;SP&lt;sub&gt;m+3&lt;/sub&gt;&lt;/font&gt;" style="rounded=0;whiteSpace=wrap;html=1;fillColor=#dae8fc;" parent="1" vertex="1">
          <mxGeometry x="2080" y="1010" width="120" height="40" as="geometry" />
        </mxCell>
        <mxCell id="RAWwMJ1mJM9-SF2o9ze5-207" value="&lt;font style=&quot;font-size: 20px&quot;&gt;SP&lt;sub&gt;m&lt;/sub&gt;&lt;/font&gt;" style="rounded=0;whiteSpace=wrap;html=1;fillColor=#dae8fc;" parent="1" vertex="1">
          <mxGeometry x="2200" y="1010" width="120" height="40" as="geometry" />
        </mxCell>
        <mxCell id="RAWwMJ1mJM9-SF2o9ze5-208" value="&lt;font style=&quot;font-size: 20px&quot;&gt;SP&lt;sub&gt;m+1&lt;/sub&gt;&lt;/font&gt;" style="rounded=0;whiteSpace=wrap;html=1;fillColor=#dae8fc;" parent="1" vertex="1">
          <mxGeometry x="2320" y="1010" width="120" height="40" as="geometry" />
        </mxCell>
        <mxCell id="RAWwMJ1mJM9-SF2o9ze5-209" value="&lt;font style=&quot;font-size: 20px&quot;&gt;SP&lt;sub&gt;m+2&lt;/sub&gt;&lt;/font&gt;" style="rounded=0;whiteSpace=wrap;html=1;fillColor=#dae8fc;" parent="1" vertex="1">
          <mxGeometry x="2440" y="1010" width="120" height="40" as="geometry" />
        </mxCell>
        <mxCell id="RAWwMJ1mJM9-SF2o9ze5-210" value="&lt;font style=&quot;font-size: 20px&quot;&gt;SP&lt;sub&gt;m&lt;/sub&gt;&lt;/font&gt;" style="rounded=0;whiteSpace=wrap;html=1;fillColor=#dae8fc;" parent="1" vertex="1">
          <mxGeometry x="2200" y="1230" width="80" height="40" as="geometry" />
        </mxCell>
        <mxCell id="RAWwMJ1mJM9-SF2o9ze5-211" value="&lt;font style=&quot;font-size: 20px&quot;&gt;SP&lt;sub&gt;m+1&lt;/sub&gt;&lt;/font&gt;" style="rounded=0;whiteSpace=wrap;html=1;fillColor=#dae8fc;" parent="1" vertex="1">
          <mxGeometry x="2280" y="1230" width="80" height="40" as="geometry" />
        </mxCell>
        <mxCell id="RAWwMJ1mJM9-SF2o9ze5-212" value="&lt;font style=&quot;font-size: 20px&quot;&gt;SP&lt;sub&gt;m+2&lt;/sub&gt;&lt;/font&gt;" style="rounded=0;whiteSpace=wrap;html=1;fillColor=#dae8fc;" parent="1" vertex="1">
          <mxGeometry x="2360" y="1230" width="80" height="40" as="geometry" />
        </mxCell>
        <mxCell id="RAWwMJ1mJM9-SF2o9ze5-213" value="&lt;font style=&quot;font-size: 20px&quot;&gt;SP&lt;sub&gt;m+3&lt;/sub&gt;&lt;/font&gt;" style="rounded=0;whiteSpace=wrap;html=1;fillColor=#dae8fc;" parent="1" vertex="1">
          <mxGeometry x="2440" y="1230" width="80" height="40" as="geometry" />
        </mxCell>
        <mxCell id="RAWwMJ1mJM9-SF2o9ze5-214" value="&lt;font style=&quot;font-size: 20px&quot;&gt;SP&lt;sub&gt;m+4&lt;/sub&gt;&lt;/font&gt;" style="rounded=0;whiteSpace=wrap;html=1;fillColor=#dae8fc;" parent="1" vertex="1">
          <mxGeometry x="2520" y="1230" width="80" height="40" as="geometry" />
        </mxCell>
        <mxCell id="RAWwMJ1mJM9-SF2o9ze5-215" value="&lt;font style=&quot;font-size: 20px&quot;&gt;SP&lt;sub&gt;m+5&lt;/sub&gt;&lt;/font&gt;" style="rounded=0;whiteSpace=wrap;html=1;fillColor=#dae8fc;" parent="1" vertex="1">
          <mxGeometry x="2600" y="1230" width="80" height="40" as="geometry" />
        </mxCell>
        <mxCell id="RAWwMJ1mJM9-SF2o9ze5-216" value="&lt;font style=&quot;font-size: 20px&quot;&gt;SP&lt;sub&gt;m+3&lt;/sub&gt;&lt;/font&gt;" style="rounded=0;whiteSpace=wrap;html=1;fillColor=#dae8fc;" parent="1" vertex="1">
          <mxGeometry x="2560" y="1010" width="120" height="40" as="geometry" />
        </mxCell>
        <mxCell id="RAWwMJ1mJM9-SF2o9ze5-217" value="" style="endArrow=none;html=1;rounded=0;strokeWidth=2;strokeColor=#0000FF;" parent="1" edge="1">
          <mxGeometry width="50" height="50" relative="1" as="geometry">
            <mxPoint x="1240" y="1450" as="sourcePoint" />
            <mxPoint x="1240" y="900" as="targetPoint" />
          </mxGeometry>
        </mxCell>
        <mxCell id="RAWwMJ1mJM9-SF2o9ze5-218" value="" style="endArrow=none;html=1;rounded=0;strokeColor=none;" parent="1" edge="1">
          <mxGeometry width="50" height="50" relative="1" as="geometry">
            <mxPoint x="1240" y="900" as="sourcePoint" />
            <mxPoint x="1240" y="1450" as="targetPoint" />
          </mxGeometry>
        </mxCell>
        <mxCell id="RAWwMJ1mJM9-SF2o9ze5-223" value="" style="endArrow=none;html=1;rounded=0;strokeColor=#0000FF;strokeWidth=2;" parent="1" edge="1">
          <mxGeometry width="50" height="50" relative="1" as="geometry">
            <mxPoint x="2200" y="900" as="sourcePoint" />
            <mxPoint x="2200" y="1450" as="targetPoint" />
          </mxGeometry>
        </mxCell>
        <mxCell id="RAWwMJ1mJM9-SF2o9ze5-224" value="" style="endArrow=none;html=1;rounded=0;strokeColor=#0000FF;strokeWidth=2;" parent="1" edge="1">
          <mxGeometry width="50" height="50" relative="1" as="geometry">
            <mxPoint x="1720" y="900" as="sourcePoint" />
            <mxPoint x="1720" y="1450" as="targetPoint" />
          </mxGeometry>
        </mxCell>
        <mxCell id="I1y_XroyzLI6XQ8AGOqx-1" value="&lt;span style=&quot;font-size: 20px;&quot;&gt;design&lt;/span&gt;" style="rounded=0;whiteSpace=wrap;html=1;fillColor=#CCCCFF;" parent="1" vertex="1">
          <mxGeometry x="760" y="1060" width="120" height="40" as="geometry" />
        </mxCell>
        <mxCell id="RAWwMJ1mJM9-SF2o9ze5-1" value="&lt;span style=&quot;font-size: 20px;&quot;&gt;implement&lt;/span&gt;" style="rounded=0;whiteSpace=wrap;html=1;fillColor=#CCCCFF;" parent="1" vertex="1">
          <mxGeometry x="880" y="1060" width="120" height="40" as="geometry" />
        </mxCell>
        <mxCell id="RAWwMJ1mJM9-SF2o9ze5-2" value="&lt;span style=&quot;font-size: 20px;&quot;&gt;test&lt;/span&gt;" style="rounded=0;whiteSpace=wrap;html=1;fillColor=#CCCCFF;" parent="1" vertex="1">
          <mxGeometry x="1000" y="1060" width="120" height="40" as="geometry" />
        </mxCell>
        <mxCell id="kjaA9cjVqBq8TyVr3SzD-1" value="&lt;span style=&quot;font-size: 20px;&quot;&gt;3 week sprints &lt;font color=&quot;#ff0000&quot;&gt;&lt;sup&gt;1&lt;/sup&gt;&lt;/font&gt;&lt;/span&gt;" style="rounded=0;whiteSpace=wrap;html=1;fillColor=#FFE6CC;rotation=-90;" parent="1" vertex="1">
          <mxGeometry x="625.63" y="1094.38" width="208.75" height="40" as="geometry" />
        </mxCell>
        <mxCell id="kjaA9cjVqBq8TyVr3SzD-2" value="&lt;span style=&quot;font-size: 20px;&quot;&gt;2 week sprints &lt;font color=&quot;#ff0000&quot;&gt;&lt;sup&gt;2&lt;/sup&gt;&lt;/font&gt;&lt;/span&gt;" style="rounded=0;whiteSpace=wrap;html=1;fillColor=#FFE6CC;rotation=-90;" parent="1" vertex="1">
          <mxGeometry x="625" y="1315" width="210" height="40" as="geometry" />
        </mxCell>
        <mxCell id="gg7VlGh-u2nQOq4-1N7r-1" value="&lt;div style=&quot;&quot;&gt;&lt;span style=&quot;font-size: 15px; background-color: initial;&quot;&gt;&lt;font color=&quot;#ff0000&quot;&gt;&lt;b&gt;Note 1:&lt;/b&gt;&lt;/font&gt; 5 stories / SI&lt;/span&gt;&lt;/div&gt;&lt;font style=&quot;font-size: 15px;&quot;&gt;&lt;div style=&quot;&quot;&gt;&lt;span style=&quot;background-color: initial;&quot;&gt;&lt;b&gt;&lt;font color=&quot;#ff0000&quot;&gt;Note 2:&lt;/font&gt;&lt;/b&gt; 8 stories / SI&lt;/span&gt;&lt;/div&gt;&lt;/font&gt;" style="text;html=1;strokeColor=none;fillColor=none;align=left;verticalAlign=middle;whiteSpace=wrap;rounded=0;" parent="1" vertex="1">
          <mxGeometry x="760" y="1460" width="160" height="30" as="geometry" />
        </mxCell>
      </root>
    </mxGraphModel>
  </diagram>
  <diagram id="CI4AANzMIJZZciNGnisS" name="scrum cyclic">
    <mxGraphModel dx="92" dy="80" grid="1" gridSize="10" guides="1" tooltips="1" connect="1" arrows="1" fold="1" page="0" pageScale="1" pageWidth="850" pageHeight="1100" math="0" shadow="0">
      <root>
        <mxCell id="0" />
        <mxCell id="1" parent="0" />
        <mxCell id="JJ5JBlHns4BNM9mebSSA-3" value="" style="verticalLabelPosition=bottom;verticalAlign=top;html=1;shape=mxgraph.basic.arc;strokeColor=#10739E;strokeWidth=12;startAngle=0.38257308609418406;endAngle=0.11623654759780006;" parent="1" vertex="1">
          <mxGeometry x="1352" y="989" width="110" height="110" as="geometry" />
        </mxCell>
        <mxCell id="JJ5JBlHns4BNM9mebSSA-4" value="" style="triangle;whiteSpace=wrap;html=1;strokeColor=none;fillColor=#10739e;rotation=45;" parent="1" vertex="1">
          <mxGeometry x="1431.5" y="989" width="22.5" height="30" as="geometry" />
        </mxCell>
        <mxCell id="JJ5JBlHns4BNM9mebSSA-9" value="" style="endArrow=none;html=1;rounded=0;strokeWidth=24;endFill=0;strokeColor=#10739e;" parent="1" edge="1">
          <mxGeometry width="50" height="50" relative="1" as="geometry">
            <mxPoint x="1240" y="1420" as="sourcePoint" />
            <mxPoint x="1600" y="1420" as="targetPoint" />
          </mxGeometry>
        </mxCell>
        <mxCell id="JJ5JBlHns4BNM9mebSSA-10" value="" style="shape=parallelogram;perimeter=parallelogramPerimeter;whiteSpace=wrap;html=1;fixedSize=1;strokeColor=none;fillColor=#10739e;size=38;" parent="1" vertex="1">
          <mxGeometry x="1708" y="1408" width="88" height="24" as="geometry" />
        </mxCell>
        <mxCell id="JJ5JBlHns4BNM9mebSSA-6" value="" style="endArrow=block;html=1;rounded=0;strokeWidth=24;endFill=1;strokeColor=#10739e;exitX=0.557;exitY=0.5;exitDx=0;exitDy=0;exitPerimeter=0;" parent="1" source="JJ5JBlHns4BNM9mebSSA-10" edge="1">
          <mxGeometry width="50" height="50" relative="1" as="geometry">
            <mxPoint x="1679" y="1597" as="sourcePoint" />
            <mxPoint x="2000" y="1420" as="targetPoint" />
          </mxGeometry>
        </mxCell>
        <mxCell id="JJ5JBlHns4BNM9mebSSA-1" value="" style="verticalLabelPosition=bottom;verticalAlign=top;html=1;shape=mxgraph.basic.arc;strokeColor=#10739E;strokeWidth=24;startAngle=0.6453732744483797;endAngle=0.5;" parent="1" vertex="1">
          <mxGeometry x="1400" y="1020" width="400" height="400" as="geometry" />
        </mxCell>
        <mxCell id="mQS8Vh2i7EjVF6xYPtMl-1" value="" style="endArrow=none;html=1;rounded=0;strokeColor=none;" parent="1" edge="1">
          <mxGeometry width="50" height="50" relative="1" as="geometry">
            <mxPoint x="1930" y="1460" as="sourcePoint" />
            <mxPoint x="1960" y="1460" as="targetPoint" />
          </mxGeometry>
        </mxCell>
        <mxCell id="JJ5JBlHns4BNM9mebSSA-13" value="occlusion" parent="0" visible="0" />
        <mxCell id="JJ5JBlHns4BNM9mebSSA-8" value="" style="verticalLabelPosition=bottom;verticalAlign=top;html=1;shape=mxgraph.basic.arc;strokeColor=#FFFFFF;strokeWidth=24;startAngle=0.3945715809024097;endAngle=0.44930028934144856;fillColor=none;" parent="JJ5JBlHns4BNM9mebSSA-13" vertex="1">
          <mxGeometry x="1377" y="995" width="450" height="450" as="geometry" />
        </mxCell>
      </root>
    </mxGraphModel>
  </diagram>
</mxfile>
